<svg width="140" height="42" viewBox="0 0 140 42" fill="none" xmlns="http://www.w3.org/2000/svg">
<g clip-path="url(#clip0)">
<path d="M8.97571 41.9978C8.61454 41.9978 8.26209 41.9935 7.90376 41.9861C7.16143 41.9771 6.42084 41.9172 5.68806 41.807C5.00478 41.698 4.34286 41.4952 3.72414 41.2054C3.1111 40.918 2.55195 40.5411 2.06813 40.0892C1.5773 39.6426 1.16866 39.1247 0.858403 38.5559C0.544731 37.9834 0.327651 37.3697 0.214725 36.7363C0.0927754 36.0557 0.0267955 35.3674 0.0173544 34.6776C0.0098389 34.446 0 33.675 0 33.675V8.311C0 8.311 0.010479 7.55184 0.0174137 7.32881C0.0264534 6.64003 0.0920496 5.95288 0.213635 5.27331C0.326769 4.63815 0.544017 4.02273 0.857858 3.44835C1.16697 2.87994 1.57334 2.36161 2.06121 1.91343C2.54854 1.461 3.10947 1.08218 3.72356 0.790777C4.34086 0.50188 5.00152 0.300553 5.68342 0.193541C6.41861 0.0821687 7.16177 0.0219553 7.90667 0.0134064L8.97629 0H130.799L131.882 0.0139444C132.62 0.0220686 133.356 0.0817448 134.085 0.192465C134.773 0.30082 135.441 0.503551 136.065 0.793995C137.295 1.38125 138.296 2.31033 138.928 3.45103C139.237 4.02144 139.451 4.63184 139.562 5.26152C139.685 5.94666 139.754 6.63921 139.768 7.33364C139.772 7.64459 139.772 7.97859 139.772 8.311C139.781 8.72274 139.781 9.11464 139.781 9.50976V32.4891C139.781 32.888 139.781 33.2772 139.772 33.6696C139.772 34.0267 139.772 34.3538 139.767 34.6904C139.753 35.3724 139.686 36.0526 139.565 36.7255C139.454 37.3635 139.238 37.9819 138.925 38.5591C138.612 39.1218 138.206 39.6352 137.721 40.0806C137.236 40.5349 136.676 40.914 136.062 41.2033C135.439 41.4954 134.773 41.6989 134.085 41.807C133.352 41.9178 132.611 41.9777 131.869 41.9861C131.522 41.9935 131.158 41.9978 130.805 41.9978L129.52 42L8.97571 41.9978Z" fill="#F1F0F2"/>
<path d="M29.3542 21.3157C29.3771 19.5344 30.311 17.889 31.8286 16.956C30.8669 15.5825 29.3138 14.7429 27.6379 14.6905C25.8747 14.5054 24.1653 15.7455 23.2668 15.7455C22.3509 15.7455 20.9676 14.7088 19.4779 14.7395C17.5179 14.8028 15.7349 15.8902 14.7813 17.6037C12.7506 21.1196 14.2653 26.2867 16.2106 29.1286C17.1838 30.5202 18.3213 32.0747 19.8096 32.0196C21.266 31.9592 21.81 31.0909 23.568 31.0909C25.3097 31.0909 25.82 32.0196 27.3385 31.9845C28.9013 31.9592 29.886 30.5867 30.8251 29.1819C31.5243 28.1904 32.0624 27.0945 32.4194 25.9348C30.5633 25.1498 29.3564 23.331 29.3542 21.3157ZM26.486 12.8214C27.3381 11.7985 27.7579 10.4837 27.6562 9.15625C26.3544 9.29298 25.1519 9.91517 24.2883 10.8988C23.4355 11.8694 23.0035 13.1391 23.0874 14.4283C24.4067 14.4419 25.6593 13.8496 26.486 12.8214Z" fill="#393F54"/>
<path d="M51.3079 17.3402H46.3379L45.1443 20.8645H43.0392L47.7468 7.82557H49.9339L54.6415 20.8645H52.5005L51.3079 17.3402ZM46.8526 15.7139H50.7922L48.8501 9.99429H48.7958L46.8526 15.7139ZM64.8082 16.1118C64.8082 19.0659 63.2271 20.9639 60.841 20.9639C59.6076 21.0284 58.4459 20.3824 57.8499 19.3007H57.8048V24.0093H55.8535V11.3581H57.7423V12.9392H57.7782C58.4006 11.8643 59.5636 11.2186 60.8051 11.2586C63.2178 11.2586 64.8082 13.1658 64.8082 16.1118ZM62.8026 16.1118C62.8026 14.1871 61.8079 12.9218 60.2903 12.9218C58.7994 12.9218 57.7966 14.2138 57.7966 16.1118C57.7966 18.0272 58.7994 19.31 60.2903 19.31C61.8079 19.31 62.8026 18.0539 62.8026 16.1118ZM75.2713 16.1118C75.2713 19.0659 73.6902 20.9639 71.3041 20.9639C70.0707 21.0284 68.909 20.3824 68.313 19.3007H68.2679V24.0093H66.3165V11.3581H68.2053V12.9392H68.2412C68.8636 11.8643 70.0266 11.2186 71.2682 11.2586C73.6809 11.2586 75.2713 13.1658 75.2713 16.1118ZM73.2657 16.1118C73.2657 14.1871 72.271 12.9218 70.7534 12.9218C69.2625 12.9218 68.2597 14.2138 68.2597 16.1118C68.2597 18.0272 69.2625 19.31 70.7534 19.31C72.271 19.31 73.2657 18.0539 73.2657 16.1118ZM82.1865 17.2315C82.3311 18.5245 83.5872 19.3735 85.3037 19.3735C86.9485 19.3735 88.1318 18.5245 88.1318 17.3586C88.1318 16.3465 87.4181 15.7406 85.7283 15.3253L84.0384 14.9182C81.6441 14.3399 80.5326 13.2201 80.5326 11.4031C80.5326 9.15342 82.4931 7.60815 85.2771 7.60815C88.0323 7.60815 89.9211 9.15342 89.9846 11.4031H88.0148C87.8969 10.1019 86.8213 9.31646 85.2494 9.31646C83.6774 9.31646 82.6018 10.1111 82.6018 11.2678C82.6018 12.1896 83.2888 12.732 84.9694 13.1473L86.406 13.5C89.0812 14.1327 90.1928 15.2073 90.1928 17.1145C90.1928 19.5539 88.2497 21.0818 85.1591 21.0818C82.2675 21.0818 80.3152 19.5898 80.1891 17.2314L82.1865 17.2315ZM94.4041 9.10835V11.3581H96.2118V12.9033H94.4041V18.1441C94.4041 18.9583 94.766 19.3377 95.5607 19.3377C95.7753 19.3339 95.9896 19.3188 96.2026 19.2925V20.8285C95.8453 20.8953 95.4822 20.9255 95.1188 20.9188C93.1941 20.9188 92.4435 20.1959 92.4435 18.3522V12.9033H91.0613V11.3581H92.4435V9.10835H94.4041ZM97.2588 16.1118C97.2588 13.1207 99.0204 11.2412 101.767 11.2412C104.524 11.2412 106.277 13.1207 106.277 16.1118C106.277 19.1111 104.533 20.9824 101.767 20.9824C99.0029 20.9824 97.2588 19.111 97.2588 16.1118ZM104.289 16.1118C104.289 14.06 103.349 12.849 101.767 12.849C100.186 12.849 99.247 14.0692 99.247 16.1118C99.247 18.1718 100.186 19.3736 101.767 19.3736C103.349 19.3736 104.289 18.1718 104.289 16.1118ZM107.886 11.3581H109.747V12.9761H109.792C110.052 11.9345 111.006 11.2176 112.079 11.2586C112.304 11.2578 112.528 11.2822 112.747 11.3314V13.1566C112.463 13.0698 112.167 13.03 111.871 13.0387C111.297 13.0154 110.742 13.244 110.351 13.6645C109.96 14.085 109.772 14.6554 109.837 15.2258V20.8644H107.886V11.3581ZM121.744 18.0723C121.482 19.798 119.801 20.9824 117.651 20.9824C114.885 20.9824 113.169 19.1295 113.169 16.1569C113.169 13.1751 114.894 11.2412 117.569 11.2412C120.199 11.2412 121.853 13.0479 121.853 15.9303V16.5988H115.139V16.7167C115.076 17.4245 115.32 18.125 115.809 18.6402C116.299 19.1554 116.986 19.4356 117.696 19.4094C118.643 19.4981 119.536 18.9544 119.891 18.0723L121.744 18.0723ZM115.148 15.2351H119.9C119.936 14.5991 119.704 13.9772 119.262 13.5192C118.819 13.0612 118.205 12.8086 117.569 12.8223C116.927 12.8185 116.31 13.0712 115.855 13.5243C115.401 13.9773 115.146 14.5932 115.148 15.2351Z" fill="#393F54"/>
<path d="M43.1243 26.7494H52.1036V27.6884H47.8352V29.0164C48.4469 29.2996 49.0625 29.6118 49.6821 29.9531C50.3014 30.2939 50.928 30.6598 51.5618 31.0507L51.0089 31.9134C50.3566 31.4973 49.7706 31.1307 49.2507 30.8133C48.7307 30.496 48.2589 30.2324 47.8352 30.0224V35.5683H46.8838V27.6884H43.1243V26.7494ZM54.6451 26.8481H56.3757V26.3181H57.2935V26.8481H58.9688V27.6003H57.2935V28.1421H59.6715C59.6492 27.8624 59.6381 27.5694 59.6381 27.263V26.3181H60.5342C60.5342 26.6425 60.5377 26.9586 60.5448 27.2688C60.5524 27.5779 60.5636 27.869 60.5782 28.142H62.9998V28.933H60.6111C60.6335 29.4936 60.6676 29.9883 60.7134 30.4173C60.7599 30.8474 60.8121 31.22 60.8715 31.5373C60.8862 31.6372 60.9015 31.7265 60.9185 31.8052C60.935 31.8852 60.9544 31.9651 60.9761 32.0462C61.147 31.6501 61.2957 31.2448 61.4215 30.8322C61.5596 30.3755 61.6713 29.9113 61.7559 29.4419L62.5685 29.8062C62.3299 31.0318 61.9107 32.2153 61.3246 33.3178C61.381 33.4758 61.4455 33.6307 61.5179 33.782C61.7282 34.2357 61.9053 34.4625 62.0491 34.4625C62.1631 34.4625 62.281 33.9481 62.4028 32.9194L63.1826 33.3507C62.9505 34.8068 62.615 35.5351 62.176 35.5355C61.8516 35.5355 61.4813 35.2295 61.0648 34.6176C60.9521 34.469 60.8609 34.3052 60.7939 34.1311C60.4477 34.5838 60.027 34.9745 59.55 35.2864L59.1186 34.6788H57.2606V35.5238H56.3757V34.6788H54.1145V33.9043H56.3757V33.473H54.6116V30.5537H56.3757V30.1553H54.2468V29.4419H56.3757V29.06H57.2606V29.4419H59.3784V30.1553H57.2606V30.5537H59.0628V33.473H57.2606V33.9043H59.3672V34.3133C59.7686 33.9833 60.1123 33.589 60.3843 33.1463C60.3185 32.9441 60.2604 32.7326 60.2104 32.514C60.1604 32.2942 60.1097 32.0592 60.0582 31.8089C59.8645 30.8611 59.7462 29.8995 59.7045 28.9331H54.0204V28.1421H56.3757V27.6003H54.6451V26.8481ZM55.4025 31.6983H56.442V31.2H55.4025V31.6983ZM56.442 32.8089V32.2836H55.4025V32.8089H56.442ZM57.2165 31.2V31.6983H58.256V31.2H57.2165ZM58.256 32.8089V32.2836H57.2165V32.8089H58.256ZM60.9156 26.7706L61.5843 26.3393C61.9784 26.7376 62.3358 27.1706 62.652 27.6332L61.9604 28.1315C61.8317 27.9247 61.6824 27.7096 61.5126 27.4839C61.3428 27.2595 61.1437 27.0217 60.9155 26.7706L60.9156 26.7706Z" fill="#393F54"/>
</g>
<defs>
<clipPath id="clip0">
<rect width="139.781" height="42" fill="white"/>
</clipPath>
</defs>
</svg>
