<svg width="360" height="69" viewBox="0 0 360 69" fill="none" xmlns="http://www.w3.org/2000/svg">
<g clip-path="url(#clip0)">
<mask id="mask0" mask-type="alpha" maskUnits="userSpaceOnUse" x="0" y="-103" width="360" height="201">
<path d="M360 -102.5H0V97.5H360V-102.5Z" fill="white"/>
</mask>
<g mask="url(#mask0)">
<path fill-rule="evenodd" clip-rule="evenodd" d="M189.741 68.875H183.569C182.776 68.875 182.133 68.2325 182.133 67.4398V30.6338H180.904C180.111 30.6338 179.468 29.9912 179.468 29.1985V29.0051H175.838V29.1985C175.838 29.9912 175.194 30.6338 174.401 30.6338H173.326V67.2596C173.326 68.0523 172.683 68.6948 171.889 68.6948H165.591C164.798 68.6948 164.154 68.0523 164.154 67.2596V29.5929H161.714C160.921 29.5929 160.277 28.9504 160.277 28.1577V27.1344H158.534V28.1577C158.534 28.9504 157.89 29.5929 157.097 29.5929H154.768V45.1643C154.768 45.9565 154.124 46.5995 153.331 46.5995H146.283C145.489 46.5995 144.846 45.9565 144.846 45.1643V11.7393H144.552C144.008 11.7393 143.51 11.4319 143.267 10.9457L142.232 8.87852H140.071C139.977 8.87852 139.883 8.86925 139.791 8.85114C139.701 8.86925 139.607 8.87852 139.511 8.87852H137.286L136.251 10.9457C136.008 11.4319 135.51 11.7393 134.966 11.7393H134.67L134.614 67.2609C134.613 68.0532 133.97 68.6948 133.177 68.6948H125.367C124.986 68.6948 124.62 68.5433 124.351 68.274C124.081 68.0046 123.93 67.6394 123.93 67.2587L123.958 23.8475H123.712C122.919 23.8475 122.275 23.205 122.275 22.4123V20.1803H116.772V22.4123C116.772 23.205 116.129 23.8475 115.336 23.8475H115.152V31.0935C115.152 31.8862 114.509 32.5288 113.715 32.5288H111.691V66.9063C111.691 67.699 111.048 68.3415 110.254 68.3415H104.377C103.584 68.3415 102.94 67.699 102.94 66.9063V27.0739H100.144C99.3507 27.0739 98.7074 26.4314 98.7074 25.6387V23.5459C98.7074 23.3688 98.7401 23.193 98.8042 23.0279L99.5413 21.1272H96.8222C96.7263 21.1272 96.6321 21.1174 96.5415 21.0998C96.4509 21.1174 96.3571 21.1272 96.2612 21.1272H93.6071L94.3441 23.0279C94.4083 23.193 94.441 23.3688 94.441 23.5459V25.6387C94.441 26.4314 93.7977 27.0739 93.0041 27.0739H90.2081V49.3698C90.2081 50.1624 89.5648 50.805 88.7712 50.805H85.1574C84.3638 50.805 83.7205 50.1624 83.7205 49.3698V48.0851H82.1204V49.3698C82.1204 50.1624 81.4772 50.805 80.6836 50.805H79.7401V59.4196C79.7401 60.2123 79.0968 60.8548 78.3032 60.8548H73.7427C72.9491 60.8548 72.3058 60.2123 72.3058 59.4196V56.285H67.2206C66.427 56.285 65.7837 55.6424 65.7837 54.8497V45.7613L48.6799 45.794V67.2256C48.6799 67.6076 48.5274 67.9737 48.2559 68.243C47.9845 68.5124 47.6188 68.6811 47.2346 68.6608L43.7622 68.6405C42.9717 68.6356 42.3337 67.9944 42.3337 67.2053V62.5339L36.3479 62.5277C35.5547 62.5268 34.9123 61.8847 34.9123 61.0924V52.6995H33.3225C32.5289 52.6995 31.8856 52.057 31.8856 51.2643V50.5409H27.5656V51.2643C27.5656 52.057 26.9219 52.6995 26.1287 52.6995H21.609C20.8154 52.6995 20.1721 52.057 20.1721 51.2643V50.5409H15.8521V51.2643C15.8521 52.057 15.2089 52.6995 14.4152 52.6995H5.08035L5.15064 67.2525C5.15241 67.6341 5.00209 68.0006 4.73284 68.2718C4.46315 68.542 4.09707 68.6944 3.71464 68.6948L-2.4087 68.6997H-2.41003C-3.19612 68.6997 -3.83631 68.0686 -3.84647 67.2834L-3.96098 58.7951L-18.5628 58.8521V60.6044C-18.5628 61.3971 -19.2061 62.0397 -19.9997 62.0397H-21.5569V67.2596C-21.5569 68.0523 -22.2002 68.6948 -22.9938 68.6948H-25.3131C-26.1067 68.6948 -26.75 68.0523 -26.75 67.2596C-26.75 66.4669 -26.1067 65.8243 -25.3131 65.8243H-24.4306V60.6044C-24.4306 59.8122 -23.7874 59.1692 -22.9938 59.1692H-21.4366V57.4222C-21.4366 56.6317 -20.7969 55.99 -20.0055 55.9869L-2.54885 55.9189H-2.54311C-1.75746 55.9189 -1.11683 56.5495 -1.10666 57.3347L-0.992155 65.8279L2.2698 65.8257L2.19994 51.2713C2.19818 50.8894 2.3485 50.5224 2.61819 50.2517C2.88788 49.9814 3.2544 49.829 3.63683 49.829H12.9784V49.1057C12.9784 48.313 13.6216 47.6704 14.4152 47.6704H21.609C22.4026 47.6704 23.0458 48.313 23.0458 49.1057V49.829H24.6919V49.1057C24.6919 48.313 25.3351 47.6704 26.1287 47.6704H33.3225C34.1156 47.6704 34.7593 48.313 34.7593 49.1057V49.829H36.3492C37.1428 49.829 37.7861 50.4716 37.7861 51.2643V59.6585L43.7719 59.6647C44.5651 59.6651 45.2075 60.3077 45.2075 61.0999V65.778L45.8061 65.7815V44.3614C45.8061 43.5696 46.4476 42.9279 47.2404 42.9261L67.2179 42.8882H67.2206C67.6013 42.8882 67.9665 43.0392 68.2357 43.3077C68.5058 43.5771 68.6575 43.9423 68.6575 44.3234V53.4145H73.7427C74.5363 53.4145 75.1796 54.057 75.1796 54.8497V57.9843H76.8663V49.3698C76.8663 48.5771 77.5096 47.9345 78.3032 47.9345H79.2467V46.6498C79.2467 45.8571 79.89 45.2146 80.6836 45.2146H85.1574C85.951 45.2146 86.5942 45.8571 86.5942 46.6498V47.9345H87.3344V25.6387C87.3344 24.846 87.9776 24.2034 88.7712 24.2034H91.5672V23.8139L90.1701 20.2099C89.999 19.7687 90.0569 19.271 90.3248 18.8807C90.5928 18.4903 91.0362 18.2567 91.5102 18.2567H94.8243V13.4925C94.8243 12.5466 95.5949 11.7773 96.5415 11.7773C97.4885 11.7773 98.2591 12.5466 98.2591 13.4925V18.2567H101.638C102.112 18.2567 102.556 18.4903 102.824 18.8807C103.091 19.271 103.149 19.7687 102.978 20.2099L101.581 23.8139V24.2034H104.377C105.171 24.2034 105.814 24.846 105.814 25.6387V65.471H108.817V31.0935C108.817 30.3008 109.461 29.6583 110.254 29.6583H112.278V22.4123C112.278 21.6196 112.922 20.977 113.715 20.977H113.899V18.7451C113.899 17.9524 114.542 17.3098 115.336 17.3098H123.712C124.506 17.3098 125.149 17.9524 125.149 18.7451V20.977H125.395C125.777 20.977 126.143 21.1285 126.412 21.3979C126.682 21.6672 126.833 22.0325 126.832 22.4131L126.805 65.8243H131.742L131.798 10.3023C131.799 9.51048 132.442 8.86881 133.235 8.86881H134.078L135.112 6.80117C135.356 6.31495 135.853 6.00803 136.398 6.00803H138.091L138.124 3.32301C138.124 2.39473 138.894 1.625 139.841 1.625C140.788 1.625 141.558 2.39474 141.558 3.34068L141.526 6.00803H143.12C143.664 6.00803 144.162 6.31495 144.405 6.80117L145.44 8.86881H146.283C147.077 8.86881 147.72 9.51136 147.72 10.3041V43.729H151.894V28.1577C151.894 27.365 152.537 26.7224 153.331 26.7224H155.66V25.6992C155.66 24.9065 156.303 24.2639 157.097 24.2639H161.714C162.508 24.2639 163.151 24.9065 163.151 25.6992V26.7224H165.591C166.384 26.7224 167.028 27.365 167.028 28.1577V65.8243H170.452V29.1985C170.452 28.4058 171.096 27.7633 171.889 27.7633H172.964V27.5699C172.964 26.7772 173.607 26.1346 174.401 26.1346H180.904C181.698 26.1346 182.341 26.7772 182.341 27.5699V27.7633H183.569C184.363 27.7633 185.006 28.4058 185.006 29.1985V66.0045H188.304V40.9808C188.304 40.1881 188.947 39.5456 189.741 39.5456H191.868L192.376 37.3684C192.528 36.7188 193.108 36.2591 193.776 36.2591H206.287C206.955 36.2591 207.535 36.7188 207.686 37.3684L208.195 39.5456H210.322C211.116 39.5456 211.759 40.1881 211.759 40.9808V65.8773H214.893V45.1625C214.893 44.3698 215.536 43.7272 216.33 43.7272H222.842C223.635 43.7272 224.278 44.3698 224.278 45.1625V52.1691L227.594 52.1281L227.604 40.9733C227.605 40.1811 228.247 39.5394 229.041 39.5394H237.993C238.787 39.5394 239.43 40.182 239.43 40.9747V65.8243H243.209V47.3551C243.209 46.5628 243.852 45.9199 244.646 45.9199H252.028C252.821 45.9199 253.465 46.5628 253.465 47.3551V65.8301L256.897 65.8451V51.4581C256.897 50.6654 257.54 50.0229 258.334 50.0229H261.251V49.9368C261.251 49.1441 261.894 48.5015 262.688 48.5015H268.054C268.848 48.5015 269.491 49.1441 269.491 49.9368V50.0229H272.578V49.9368C272.578 49.1441 273.221 48.5015 274.015 48.5015H279.382C280.175 48.5015 280.818 49.1441 280.818 49.9368V50.0229H282.277C283.068 50.0229 283.71 50.6624 283.713 51.4529L283.764 65.8243H287.058V41.4454C287.058 40.7993 287.49 40.2332 288.113 40.0614L292.577 38.8346V37.5998C292.577 36.8071 293.221 36.1646 294.014 36.1646H299.073C299.866 36.1646 300.51 36.8071 300.51 37.5998V44.8569H305.274C306.067 44.8569 306.711 45.4994 306.711 46.2921V65.8243H311.347V62.8929C311.347 62.1002 311.99 61.4576 312.784 61.4576H314.634V44.243C314.634 43.4503 315.278 42.8078 316.071 42.8078H326.475C327.269 42.8078 327.912 43.4503 327.912 44.243V65.8243H333.361V41.6622C333.361 41.2657 333.525 40.8872 333.814 40.6161L343.744 31.3051C344.296 30.7866 345.157 30.7866 345.711 31.3051L355.64 40.6161C355.929 40.8872 356.093 41.2657 356.093 41.6622V65.8243H364.813C365.607 65.8243 366.25 66.4669 366.25 67.2596C366.25 68.0523 365.607 68.6948 364.813 68.6948H354.656C353.863 68.6948 353.219 68.0523 353.219 67.2596V42.2832L344.727 34.32L336.234 42.2832V67.2596C336.234 68.0523 335.591 68.6948 334.798 68.6948H326.475C325.682 68.6948 325.038 68.0523 325.038 67.2596V45.6783H317.508V62.8929C317.508 63.6856 316.865 64.3281 316.071 64.3281H314.22V67.2596C314.22 68.0523 313.577 68.6948 312.784 68.6948H305.274C304.48 68.6948 303.837 68.0523 303.837 67.2596V47.7274H299.073C298.279 47.7274 297.636 47.0848 297.636 46.2921V39.0351H295.451V39.928C295.451 40.5741 295.019 41.1403 294.395 41.312L289.932 42.5388V67.2596C289.932 68.0523 289.288 68.6948 288.495 68.6948H282.332C281.541 68.6948 280.898 68.0554 280.895 67.2644L280.845 52.8934H279.382C278.588 52.8934 277.945 52.2504 277.945 51.4581V51.372H275.452V51.4581C275.452 52.2504 274.808 52.8934 274.015 52.8934H268.054C267.261 52.8934 266.618 52.2504 266.618 51.4581V51.372H264.124V51.4581C264.124 52.2504 263.481 52.8934 262.688 52.8934H259.771V67.2861C259.771 67.6681 259.618 68.0342 259.348 68.3031C259.079 68.5707 258.714 68.7213 258.334 68.7213H258.328L252.022 68.6948C251.23 68.6913 250.591 68.0501 250.591 67.2596V48.7904H246.082V67.2596C246.082 68.0523 245.439 68.6948 244.646 68.6948H237.993C237.199 68.6948 236.556 68.0523 236.556 67.2596V42.4099H230.476L230.467 53.547C230.466 54.3322 229.834 54.9712 229.048 54.9809L222.859 55.0578C222.488 55.0516 222.105 54.9133 221.831 54.6435C221.558 54.3741 221.405 54.0063 221.405 53.6225V46.5977H217.766V67.3126C217.766 68.1053 217.123 68.7478 216.33 68.7478H210.322C209.529 68.7478 208.885 68.1053 208.885 67.3126V42.4161H207.054C206.386 42.4161 205.806 41.9564 205.655 41.3063L205.146 39.1296H194.917L194.408 41.3063C194.257 41.9564 193.677 42.4161 193.009 42.4161H191.177V67.4398C191.177 68.2325 190.534 68.875 189.741 68.875Z" fill="#173E6F" fill-opacity="0.1"/>
<path fill-rule="evenodd" clip-rule="evenodd" d="M189.741 68.125H183.569C182.776 68.125 182.133 67.4825 182.133 66.6898V29.8838H180.904C180.111 29.8838 179.468 29.2412 179.468 28.4485V28.2551H175.838V28.4485C175.838 29.2412 175.194 29.8838 174.401 29.8838H173.326V66.5096C173.326 67.3023 172.683 67.9448 171.889 67.9448H165.591C164.798 67.9448 164.154 67.3023 164.154 66.5096V28.8429H161.714C160.921 28.8429 160.277 28.2004 160.277 27.4077V26.3844H158.534V27.4077C158.534 28.2004 157.89 28.8429 157.097 28.8429H154.768V44.4143C154.768 45.2065 154.124 45.8495 153.331 45.8495H146.283C145.489 45.8495 144.846 45.2065 144.846 44.4143V10.9893H144.552C144.008 10.9893 143.51 10.6819 143.267 10.1957L142.232 8.12852H140.071C139.977 8.12852 139.883 8.11925 139.791 8.10114C139.701 8.11925 139.607 8.12852 139.511 8.12852H137.286L136.251 10.1957C136.008 10.6819 135.51 10.9893 134.966 10.9893H134.67L134.614 66.5109C134.613 67.3032 133.97 67.9448 133.177 67.9448H125.367C124.986 67.9448 124.62 67.7933 124.351 67.524C124.081 67.2546 123.93 66.8894 123.93 66.5087L123.958 23.0975H123.712C122.919 23.0975 122.275 22.455 122.275 21.6623V19.4303H116.772V21.6623C116.772 22.455 116.129 23.0975 115.336 23.0975H115.152V30.3435C115.152 31.1362 114.509 31.7788 113.715 31.7788H111.691V66.1563C111.691 66.949 111.048 67.5915 110.254 67.5915H104.377C103.584 67.5915 102.94 66.949 102.94 66.1563V26.3239H100.144C99.3507 26.3239 98.7074 25.6814 98.7074 24.8887V22.7959C98.7074 22.6188 98.7401 22.443 98.8042 22.2779L99.5413 20.3772H96.8222C96.7263 20.3772 96.6321 20.3674 96.5415 20.3498C96.4509 20.3674 96.3571 20.3772 96.2612 20.3772H93.6071L94.3441 22.2779C94.4083 22.443 94.441 22.6188 94.441 22.7959V24.8887C94.441 25.6814 93.7977 26.3239 93.0041 26.3239H90.2081V48.6198C90.2081 49.4124 89.5648 50.055 88.7712 50.055H85.1574C84.3638 50.055 83.7205 49.4124 83.7205 48.6198V47.3351H82.1204V48.6198C82.1204 49.4124 81.4772 50.055 80.6836 50.055H79.7401V58.6696C79.7401 59.4623 79.0968 60.1048 78.3032 60.1048H73.7427C72.9491 60.1048 72.3058 59.4623 72.3058 58.6696V55.535H67.2206C66.427 55.535 65.7837 54.8924 65.7837 54.0997V45.0113L48.6799 45.044V66.4756C48.6799 66.8576 48.5274 67.2237 48.2559 67.493C47.9845 67.7624 47.6188 67.9311 47.2346 67.9108L43.7622 67.8905C42.9717 67.8856 42.3337 67.2444 42.3337 66.4553V61.7839L36.3479 61.7777C35.5547 61.7768 34.9123 61.1347 34.9123 60.3424V51.9495H33.3225C32.5289 51.9495 31.8856 51.307 31.8856 50.5143V49.7909H27.5656V50.5143C27.5656 51.307 26.9219 51.9495 26.1287 51.9495H21.609C20.8154 51.9495 20.1721 51.307 20.1721 50.5143V49.7909H15.8521V50.5143C15.8521 51.307 15.2089 51.9495 14.4152 51.9495H5.08035L5.15064 66.5025C5.15241 66.8841 5.00209 67.2506 4.73284 67.5218C4.46315 67.792 4.09707 67.9444 3.71464 67.9448L-2.4087 67.9497H-2.41003C-3.19612 67.9497 -3.83631 67.3186 -3.84647 66.5334L-3.96098 58.0451L-18.5628 58.1021V59.8544C-18.5628 60.6471 -19.2061 61.2897 -19.9997 61.2897H-21.5569V66.5096C-21.5569 67.3023 -22.2002 67.9448 -22.9938 67.9448H-25.3131C-26.1067 67.9448 -26.75 67.3023 -26.75 66.5096C-26.75 65.7169 -26.1067 65.0743 -25.3131 65.0743H-24.4306V59.8544C-24.4306 59.0622 -23.7874 58.4192 -22.9938 58.4192H-21.4366V56.6722C-21.4366 55.8817 -20.7969 55.24 -20.0055 55.2369L-2.54885 55.1689H-2.54311C-1.75746 55.1689 -1.11683 55.7995 -1.10666 56.5847L-0.992155 65.0779L2.2698 65.0757L2.19994 50.5213C2.19818 50.1394 2.3485 49.7724 2.61819 49.5017C2.88788 49.2314 3.2544 49.079 3.63683 49.079H12.9784V48.3557C12.9784 47.563 13.6216 46.9204 14.4152 46.9204H21.609C22.4026 46.9204 23.0458 47.563 23.0458 48.3557V49.079H24.6919V48.3557C24.6919 47.563 25.3351 46.9204 26.1287 46.9204H33.3225C34.1156 46.9204 34.7593 47.563 34.7593 48.3557V49.079H36.3492C37.1428 49.079 37.7861 49.7216 37.7861 50.5143V58.9085L43.7719 58.9147C44.5651 58.9151 45.2075 59.5577 45.2075 60.3499V65.028L45.8061 65.0315V43.6114C45.8061 42.8196 46.4476 42.1779 47.2404 42.1761L67.2179 42.1382H67.2206C67.6013 42.1382 67.9665 42.2892 68.2357 42.5577C68.5058 42.8271 68.6575 43.1923 68.6575 43.5734V52.6645H73.7427C74.5363 52.6645 75.1796 53.307 75.1796 54.0997V57.2343H76.8663V48.6198C76.8663 47.8271 77.5096 47.1845 78.3032 47.1845H79.2467V45.8998C79.2467 45.1071 79.89 44.4646 80.6836 44.4646H85.1574C85.951 44.4646 86.5942 45.1071 86.5942 45.8998V47.1845H87.3344V24.8887C87.3344 24.096 87.9776 23.4534 88.7712 23.4534H91.5672V23.0639L90.1701 19.4599C89.999 19.0187 90.0569 18.521 90.3248 18.1307C90.5928 17.7403 91.0362 17.5067 91.5102 17.5067H94.8243V12.7425C94.8243 11.7966 95.5949 11.0273 96.5415 11.0273C97.4885 11.0273 98.2591 11.7966 98.2591 12.7425V17.5067H101.638C102.112 17.5067 102.556 17.7403 102.824 18.1307C103.091 18.521 103.149 19.0187 102.978 19.4599L101.581 23.0639V23.4534H104.377C105.171 23.4534 105.814 24.096 105.814 24.8887V64.721H108.817V30.3435C108.817 29.5508 109.461 28.9083 110.254 28.9083H112.278V21.6623C112.278 20.8696 112.922 20.227 113.715 20.227H113.899V17.9951C113.899 17.2024 114.542 16.5598 115.336 16.5598H123.712C124.506 16.5598 125.149 17.2024 125.149 17.9951V20.227H125.395C125.777 20.227 126.143 20.3785 126.412 20.6479C126.682 20.9172 126.833 21.2825 126.832 21.6631L126.805 65.0743H131.742L131.798 9.55229C131.799 8.76048 132.442 8.11881 133.235 8.11881H134.078L135.112 6.05117C135.356 5.56495 135.853 5.25803 136.398 5.25803H138.091L138.124 2.57301C138.124 1.64473 138.894 0.875 139.841 0.875C140.788 0.875 141.558 1.64474 141.558 2.59068L141.526 5.25803H143.12C143.664 5.25803 144.162 5.56495 144.405 6.05117L145.44 8.11881H146.283C147.077 8.11881 147.72 8.76136 147.72 9.55405V42.979H151.894V27.4077C151.894 26.615 152.537 25.9724 153.331 25.9724H155.66V24.9492C155.66 24.1565 156.303 23.5139 157.097 23.5139H161.714C162.508 23.5139 163.151 24.1565 163.151 24.9492V25.9724H165.591C166.384 25.9724 167.028 26.615 167.028 27.4077V65.0743H170.452V28.4485C170.452 27.6558 171.096 27.0133 171.889 27.0133H172.964V26.8199C172.964 26.0272 173.607 25.3846 174.401 25.3846H180.904C181.698 25.3846 182.341 26.0272 182.341 26.8199V27.0133H183.569C184.363 27.0133 185.006 27.6558 185.006 28.4485V65.2545H188.304V40.2308C188.304 39.4381 188.947 38.7956 189.741 38.7956H191.868L192.376 36.6184C192.528 35.9688 193.108 35.5091 193.776 35.5091H206.287C206.955 35.5091 207.535 35.9688 207.686 36.6184L208.195 38.7956H210.322C211.116 38.7956 211.759 39.4381 211.759 40.2308V65.1273H214.893V44.4125C214.893 43.6198 215.536 42.9772 216.33 42.9772H222.842C223.635 42.9772 224.278 43.6198 224.278 44.4125V51.4191L227.594 51.3781L227.604 40.2233C227.605 39.4311 228.247 38.7894 229.041 38.7894H237.993C238.787 38.7894 239.43 39.432 239.43 40.2247V65.0743H243.209V46.6051C243.209 45.8128 243.852 45.1699 244.646 45.1699H252.028C252.821 45.1699 253.465 45.8128 253.465 46.6051V65.0801L256.897 65.0951V50.7081C256.897 49.9154 257.54 49.2729 258.334 49.2729H261.251V49.1868C261.251 48.3941 261.894 47.7515 262.688 47.7515H268.054C268.848 47.7515 269.491 48.3941 269.491 49.1868V49.2729H272.578V49.1868C272.578 48.3941 273.221 47.7515 274.015 47.7515H279.382C280.175 47.7515 280.818 48.3941 280.818 49.1868V49.2729H282.277C283.068 49.2729 283.71 49.9124 283.713 50.7029L283.764 65.0743H287.058V40.6954C287.058 40.0493 287.49 39.4832 288.113 39.3114L292.577 38.0846V36.8498C292.577 36.0571 293.221 35.4146 294.014 35.4146H299.073C299.866 35.4146 300.51 36.0571 300.51 36.8498V44.1069H305.274C306.067 44.1069 306.711 44.7494 306.711 45.5421V65.0743H311.347V62.1429C311.347 61.3502 311.99 60.7076 312.784 60.7076H314.634V43.493C314.634 42.7003 315.278 42.0578 316.071 42.0578H326.475C327.269 42.0578 327.912 42.7003 327.912 43.493V65.0743H333.361V40.9122C333.361 40.5157 333.525 40.1372 333.814 39.8661L343.744 30.5551C344.296 30.0366 345.157 30.0366 345.711 30.5551L355.64 39.8661C355.929 40.1372 356.093 40.5157 356.093 40.9122V65.0743H364.813C365.607 65.0743 366.25 65.7169 366.25 66.5096C366.25 67.3023 365.607 67.9448 364.813 67.9448H354.656C353.863 67.9448 353.219 67.3023 353.219 66.5096V41.5332L344.727 33.57L336.234 41.5332V66.5096C336.234 67.3023 335.591 67.9448 334.798 67.9448H326.475C325.682 67.9448 325.038 67.3023 325.038 66.5096V44.9283H317.508V62.1429C317.508 62.9356 316.865 63.5781 316.071 63.5781H314.22V66.5096C314.22 67.3023 313.577 67.9448 312.784 67.9448H305.274C304.48 67.9448 303.837 67.3023 303.837 66.5096V46.9774H299.073C298.279 46.9774 297.636 46.3348 297.636 45.5421V38.2851H295.451V39.178C295.451 39.8241 295.019 40.3903 294.395 40.562L289.932 41.7888V66.5096C289.932 67.3023 289.288 67.9448 288.495 67.9448H282.332C281.541 67.9448 280.898 67.3054 280.895 66.5144L280.845 52.1434H279.382C278.588 52.1434 277.945 51.5004 277.945 50.7081V50.622H275.452V50.7081C275.452 51.5004 274.808 52.1434 274.015 52.1434H268.054C267.261 52.1434 266.618 51.5004 266.618 50.7081V50.622H264.124V50.7081C264.124 51.5004 263.481 52.1434 262.688 52.1434H259.771V66.5361C259.771 66.9181 259.618 67.2842 259.348 67.5531C259.079 67.8207 258.714 67.9713 258.334 67.9713H258.328L252.022 67.9448C251.23 67.9413 250.591 67.3001 250.591 66.5096V48.0404H246.082V66.5096C246.082 67.3023 245.439 67.9448 244.646 67.9448H237.993C237.199 67.9448 236.556 67.3023 236.556 66.5096V41.6599H230.476L230.467 52.797C230.466 53.5822 229.834 54.2212 229.048 54.2309L222.859 54.3078C222.488 54.3016 222.105 54.1633 221.831 53.8935C221.558 53.6241 221.405 53.2563 221.405 52.8725V45.8477H217.766V66.5626C217.766 67.3553 217.123 67.9978 216.33 67.9978H210.322C209.529 67.9978 208.885 67.3553 208.885 66.5626V41.6661H207.054C206.386 41.6661 205.806 41.2064 205.655 40.5563L205.146 38.3796H194.917L194.408 40.5563C194.257 41.2064 193.677 41.6661 193.009 41.6661H191.177V66.6898C191.177 67.4825 190.534 68.125 189.741 68.125Z" fill="white"/>
<path fill-rule="evenodd" clip-rule="evenodd" d="M189.741 68.5H183.569C182.776 68.5 182.133 67.8575 182.133 67.0648V30.2588H180.904C180.111 30.2588 179.468 29.6162 179.468 28.8235V28.6301H175.838V28.8235C175.838 29.6162 175.194 30.2588 174.401 30.2588H173.326V66.8846C173.326 67.6773 172.683 68.3198 171.889 68.3198H165.591C164.798 68.3198 164.154 67.6773 164.154 66.8846V29.2179H161.714C160.921 29.2179 160.277 28.5754 160.277 27.7827V26.7594H158.534V27.7827C158.534 28.5754 157.89 29.2179 157.097 29.2179H154.768V44.7893C154.768 45.5815 154.124 46.2245 153.331 46.2245H146.283C145.489 46.2245 144.846 45.5815 144.846 44.7893V11.3643H144.552C144.008 11.3643 143.51 11.0569 143.267 10.5707L142.232 8.50352H140.071C139.977 8.50352 139.883 8.49425 139.791 8.47614C139.701 8.49425 139.607 8.50352 139.511 8.50352H137.286L136.251 10.5707C136.008 11.0569 135.51 11.3643 134.966 11.3643H134.67L134.614 66.8859C134.613 67.6782 133.97 68.3198 133.177 68.3198H125.367C124.986 68.3198 124.62 68.1683 124.351 67.899C124.081 67.6296 123.93 67.2644 123.93 66.8837L123.958 23.4725H123.712C122.919 23.4725 122.275 22.83 122.275 22.0373V19.8053H116.772V22.0373C116.772 22.83 116.129 23.4725 115.336 23.4725H115.152V30.7185C115.152 31.5112 114.509 32.1538 113.715 32.1538H111.691V66.5313C111.691 67.324 111.048 67.9665 110.254 67.9665H104.377C103.584 67.9665 102.94 67.324 102.94 66.5313V26.6989H100.144C99.3507 26.6989 98.7074 26.0564 98.7074 25.2637V23.1709C98.7074 22.9938 98.7401 22.818 98.8042 22.6529L99.5413 20.7522H96.8222C96.7263 20.7522 96.6321 20.7424 96.5415 20.7248C96.4509 20.7424 96.3571 20.7522 96.2612 20.7522H93.6071L94.3441 22.6529C94.4083 22.818 94.441 22.9938 94.441 23.1709V25.2637C94.441 26.0564 93.7977 26.6989 93.0041 26.6989H90.2081V48.9948C90.2081 49.7874 89.5648 50.43 88.7712 50.43H85.1574C84.3638 50.43 83.7205 49.7874 83.7205 48.9948V47.7101H82.1204V48.9948C82.1204 49.7874 81.4772 50.43 80.6836 50.43H79.7401V59.0446C79.7401 59.8373 79.0968 60.4798 78.3032 60.4798H73.7427C72.9491 60.4798 72.3058 59.8373 72.3058 59.0446V55.91H67.2206C66.427 55.91 65.7837 55.2674 65.7837 54.4747V45.3863L48.6799 45.419V66.8506C48.6799 67.2326 48.5274 67.5987 48.2559 67.868C47.9845 68.1374 47.6188 68.3061 47.2346 68.2858L43.7622 68.2655C42.9717 68.2606 42.3337 67.6194 42.3337 66.8303V62.1589L36.3479 62.1527C35.5547 62.1518 34.9123 61.5097 34.9123 60.7174V52.3245H33.3225C32.5289 52.3245 31.8856 51.682 31.8856 50.8893V50.1659H27.5656V50.8893C27.5656 51.682 26.9219 52.3245 26.1287 52.3245H21.609C20.8154 52.3245 20.1721 51.682 20.1721 50.8893V50.1659H15.8521V50.8893C15.8521 51.682 15.2089 52.3245 14.4152 52.3245H5.08035L5.15064 66.8775C5.15241 67.2591 5.00209 67.6256 4.73284 67.8968C4.46315 68.167 4.09707 68.3194 3.71464 68.3198L-2.4087 68.3247H-2.41003C-3.19612 68.3247 -3.83631 67.6936 -3.84647 66.9084L-3.96098 58.4201L-18.5628 58.4771V60.2294C-18.5628 61.0221 -19.2061 61.6647 -19.9997 61.6647H-21.5569V66.8846C-21.5569 67.6773 -22.2002 68.3198 -22.9938 68.3198H-25.3131C-26.1067 68.3198 -26.75 67.6773 -26.75 66.8846C-26.75 66.0919 -26.1067 65.4493 -25.3131 65.4493H-24.4306V60.2294C-24.4306 59.4372 -23.7874 58.7942 -22.9938 58.7942H-21.4366V57.0472C-21.4366 56.2567 -20.7969 55.615 -20.0055 55.6119L-2.54885 55.5439H-2.54311C-1.75746 55.5439 -1.11683 56.1745 -1.10666 56.9597L-0.992155 65.4529L2.2698 65.4507L2.19994 50.8963C2.19818 50.5144 2.3485 50.1474 2.61819 49.8767C2.88788 49.6064 3.2544 49.454 3.63683 49.454H12.9784V48.7307C12.9784 47.938 13.6216 47.2954 14.4152 47.2954H21.609C22.4026 47.2954 23.0458 47.938 23.0458 48.7307V49.454H24.6919V48.7307C24.6919 47.938 25.3351 47.2954 26.1287 47.2954H33.3225C34.1156 47.2954 34.7593 47.938 34.7593 48.7307V49.454H36.3492C37.1428 49.454 37.7861 50.0966 37.7861 50.8893V59.2835L43.7719 59.2897C44.5651 59.2901 45.2075 59.9327 45.2075 60.7249V65.403L45.8061 65.4065V43.9864C45.8061 43.1946 46.4476 42.5529 47.2404 42.5511L67.2179 42.5132H67.2206C67.6013 42.5132 67.9665 42.6642 68.2357 42.9327C68.5058 43.2021 68.6575 43.5673 68.6575 43.9484V53.0395H73.7427C74.5363 53.0395 75.1796 53.682 75.1796 54.4747V57.6093H76.8663V48.9948C76.8663 48.2021 77.5096 47.5595 78.3032 47.5595H79.2467V46.2748C79.2467 45.4821 79.89 44.8396 80.6836 44.8396H85.1574C85.951 44.8396 86.5942 45.4821 86.5942 46.2748V47.5595H87.3344V25.2637C87.3344 24.471 87.9776 23.8284 88.7712 23.8284H91.5672V23.4389L90.1701 19.8349C89.999 19.3937 90.0569 18.896 90.3248 18.5057C90.5928 18.1153 91.0362 17.8817 91.5102 17.8817H94.8243V13.1175C94.8243 12.1716 95.5949 11.4023 96.5415 11.4023C97.4885 11.4023 98.2591 12.1716 98.2591 13.1175V17.8817H101.638C102.112 17.8817 102.556 18.1153 102.824 18.5057C103.091 18.896 103.149 19.3937 102.978 19.8349L101.581 23.4389V23.8284H104.377C105.171 23.8284 105.814 24.471 105.814 25.2637V65.096H108.817V30.7185C108.817 29.9258 109.461 29.2833 110.254 29.2833H112.278V22.0373C112.278 21.2446 112.922 20.602 113.715 20.602H113.899V18.3701C113.899 17.5774 114.542 16.9348 115.336 16.9348H123.712C124.506 16.9348 125.149 17.5774 125.149 18.3701V20.602H125.395C125.777 20.602 126.143 20.7535 126.412 21.0229C126.682 21.2922 126.833 21.6575 126.832 22.0381L126.805 65.4493H131.742L131.798 9.92729C131.799 9.13548 132.442 8.49381 133.235 8.49381H134.078L135.112 6.42617C135.356 5.93995 135.853 5.63303 136.398 5.63303H138.091L138.124 2.94801C138.124 2.01973 138.894 1.25 139.841 1.25C140.788 1.25 141.558 2.01974 141.558 2.96568L141.526 5.63303H143.12C143.664 5.63303 144.162 5.93995 144.405 6.42617L145.44 8.49381H146.283C147.077 8.49381 147.72 9.13636 147.72 9.92905V43.354H151.894V27.7827C151.894 26.99 152.537 26.3474 153.331 26.3474H155.66V25.3242C155.66 24.5315 156.303 23.8889 157.097 23.8889H161.714C162.508 23.8889 163.151 24.5315 163.151 25.3242V26.3474H165.591C166.384 26.3474 167.028 26.99 167.028 27.7827V65.4493H170.452V28.8235C170.452 28.0308 171.096 27.3883 171.889 27.3883H172.964V27.1949C172.964 26.4022 173.607 25.7596 174.401 25.7596H180.904C181.698 25.7596 182.341 26.4022 182.341 27.1949V27.3883H183.569C184.363 27.3883 185.006 28.0308 185.006 28.8235V65.6295H188.304V40.6058C188.304 39.8131 188.947 39.1706 189.741 39.1706H191.868L192.376 36.9934C192.528 36.3438 193.108 35.8841 193.776 35.8841H206.287C206.955 35.8841 207.535 36.3438 207.686 36.9934L208.195 39.1706H210.322C211.116 39.1706 211.759 39.8131 211.759 40.6058V65.5023H214.893V44.7875C214.893 43.9948 215.536 43.3522 216.33 43.3522H222.842C223.635 43.3522 224.278 43.9948 224.278 44.7875V51.7941L227.594 51.7531L227.604 40.5983C227.605 39.8061 228.247 39.1644 229.041 39.1644H237.993C238.787 39.1644 239.43 39.807 239.43 40.5997V65.4493H243.209V46.9801C243.209 46.1878 243.852 45.5449 244.646 45.5449H252.028C252.821 45.5449 253.465 46.1878 253.465 46.9801V65.4551L256.897 65.4701V51.0831C256.897 50.2904 257.54 49.6479 258.334 49.6479H261.251V49.5618C261.251 48.7691 261.894 48.1265 262.688 48.1265H268.054C268.848 48.1265 269.491 48.7691 269.491 49.5618V49.6479H272.578V49.5618C272.578 48.7691 273.221 48.1265 274.015 48.1265H279.382C280.175 48.1265 280.818 48.7691 280.818 49.5618V49.6479H282.277C283.068 49.6479 283.71 50.2874 283.713 51.0779L283.764 65.4493H287.058V41.0704C287.058 40.4243 287.49 39.8582 288.113 39.6864L292.577 38.4596V37.2248C292.577 36.4321 293.221 35.7896 294.014 35.7896H299.073C299.866 35.7896 300.51 36.4321 300.51 37.2248V44.4819H305.274C306.067 44.4819 306.711 45.1244 306.711 45.9171V65.4493H311.347V62.5179C311.347 61.7252 311.99 61.0826 312.784 61.0826H314.634V43.868C314.634 43.0753 315.278 42.4328 316.071 42.4328H326.475C327.269 42.4328 327.912 43.0753 327.912 43.868V65.4493H333.361V41.2872C333.361 40.8907 333.525 40.5122 333.814 40.2411L343.744 30.9301C344.296 30.4116 345.157 30.4116 345.711 30.9301L355.64 40.2411C355.929 40.5122 356.093 40.8907 356.093 41.2872V65.4493H364.813C365.607 65.4493 366.25 66.0919 366.25 66.8846C366.25 67.6773 365.607 68.3198 364.813 68.3198H354.656C353.863 68.3198 353.219 67.6773 353.219 66.8846V41.9082L344.727 33.945L336.234 41.9082V66.8846C336.234 67.6773 335.591 68.3198 334.798 68.3198H326.475C325.682 68.3198 325.038 67.6773 325.038 66.8846V45.3033H317.508V62.5179C317.508 63.3106 316.865 63.9531 316.071 63.9531H314.22V66.8846C314.22 67.6773 313.577 68.3198 312.784 68.3198H305.274C304.48 68.3198 303.837 67.6773 303.837 66.8846V47.3524H299.073C298.279 47.3524 297.636 46.7098 297.636 45.9171V38.6601H295.451V39.553C295.451 40.1991 295.019 40.7653 294.395 40.937L289.932 42.1638V66.8846C289.932 67.6773 289.288 68.3198 288.495 68.3198H282.332C281.541 68.3198 280.898 67.6804 280.895 66.8894L280.845 52.5184H279.382C278.588 52.5184 277.945 51.8754 277.945 51.0831V50.997H275.452V51.0831C275.452 51.8754 274.808 52.5184 274.015 52.5184H268.054C267.261 52.5184 266.618 51.8754 266.618 51.0831V50.997H264.124V51.0831C264.124 51.8754 263.481 52.5184 262.688 52.5184H259.771V66.9111C259.771 67.2931 259.618 67.6592 259.348 67.9281C259.079 68.1957 258.714 68.3463 258.334 68.3463H258.328L252.022 68.3198C251.23 68.3163 250.591 67.6751 250.591 66.8846V48.4154H246.082V66.8846C246.082 67.6773 245.439 68.3198 244.646 68.3198H237.993C237.199 68.3198 236.556 67.6773 236.556 66.8846V42.0349H230.476L230.467 53.172C230.466 53.9572 229.834 54.5962 229.048 54.6059L222.859 54.6828C222.488 54.6766 222.105 54.5383 221.831 54.2685C221.558 53.9991 221.405 53.6313 221.405 53.2475V46.2227H217.766V66.9376C217.766 67.7303 217.123 68.3728 216.33 68.3728H210.322C209.529 68.3728 208.885 67.7303 208.885 66.9376V42.0411H207.054C206.386 42.0411 205.806 41.5814 205.655 40.9313L205.146 38.7546H194.917L194.408 40.9313C194.257 41.5814 193.677 42.0411 193.009 42.0411H191.177V67.0648C191.177 67.8575 190.534 68.5 189.741 68.5Z" fill="#EDF3FA"/>
</g>
</g>
<defs>
<clipPath id="clip0">
<rect width="360" height="69" fill="white"/>
</clipPath>
</defs>
</svg>
