<svg width="240" height="72" viewBox="0 0 240 72" fill="none" xmlns="http://www.w3.org/2000/svg">
<path fill-rule="evenodd" clip-rule="evenodd" d="M174.687 37.7C175.229 37.7 175.493 37.479 175.493 37.06V37.037C175.493 36.569 175.211 36.381 174.687 36.381H174.063V37.701H174.687V37.7ZM173.439 35.889H174.707C175.547 35.889 176.105 36.263 176.105 37.021V37.037C176.105 37.631 175.765 37.951 175.245 38.069L176.341 39.737H175.647L174.619 38.169H174.063V39.737H173.439V35.889ZM177.907 37.825C177.907 35.935 176.543 34.557 174.687 34.557C172.849 34.557 171.469 35.951 171.469 37.845C171.469 39.747 172.881 41.079 174.687 41.079C176.511 41.079 177.907 39.713 177.907 37.825ZM170.943 37.845C170.943 35.767 172.593 34.095 174.687 34.095C176.811 34.095 178.433 35.751 178.433 37.825C178.433 39.931 176.779 41.553 174.687 41.553C172.615 41.553 170.943 39.951 170.943 37.845ZM154.201 24.373C153.299 24.951 149.289 27.873 149.289 33.549V41.337C149.277 41.459 149.209 41.581 149.017 41.587H146.819C146.627 41.581 146.563 41.455 146.549 41.331V33.549C146.549 26.959 150.971 23.147 152.759 22.041C152.853 21.991 152.999 21.959 153.101 22.119L154.303 24.009C154.353 24.119 154.371 24.263 154.201 24.373ZM86.023 27.564C86.8102 28.3489 87.4345 29.2816 87.8601 30.3085C88.2857 31.3354 88.5042 32.4363 88.503 33.548L88.473 40.606C88.4741 41.7184 88.2558 42.8201 87.8306 43.8481C87.4055 44.8761 86.7818 45.8101 85.9953 46.5968C85.2088 47.3835 84.2748 48.0074 83.247 48.4328C82.2191 48.8582 81.1174 49.0768 80.005 49.076C77.8386 49.0775 75.7546 48.2453 74.185 46.752C74.123 46.662 74.093 46.544 74.195 46.42L75.811 44.806C75.931 44.72 76.053 44.764 76.139 44.83C77.193 45.7991 78.5732 46.336 80.005 46.334C80.7573 46.3357 81.5025 46.1885 82.1976 45.9008C82.8927 45.6132 83.5239 45.1908 84.055 44.658C84.5878 44.1265 85.0101 43.4948 85.2978 42.7994C85.5854 42.104 85.7327 41.3585 85.731 40.606V39.814C84.1219 41.2785 82.0105 42.0667 79.8353 42.0149C77.6602 41.9632 75.5886 41.0754 74.051 39.536C73.2631 38.7506 72.638 37.8173 72.2117 36.7898C71.7854 35.7622 71.5663 34.6605 71.567 33.548C71.567 31.216 72.519 29.092 74.051 27.564C74.8351 26.7757 75.7677 26.1507 76.7948 25.725C77.8219 25.2994 78.9232 25.0815 80.035 25.084C81.1474 25.0814 82.2493 25.2993 83.2771 25.725C84.3049 26.1506 85.2381 26.7757 86.023 27.564ZM85.759 33.548C85.7612 32.7964 85.6144 32.0518 85.3271 31.3574C85.0398 30.6629 84.6176 30.0323 84.085 29.502C83.554 28.9689 82.9228 28.546 82.2277 28.2577C81.5327 27.9693 80.7875 27.8213 80.035 27.822C79.2832 27.8216 78.5387 27.9699 77.8444 28.2582C77.15 28.5465 76.5195 28.9692 75.989 29.502C75.4559 30.0321 75.0331 30.6626 74.7451 31.357C74.4571 32.0515 74.3095 32.7962 74.311 33.548C74.311 35.134 74.951 36.556 75.989 37.596C76.5189 38.1293 77.1494 38.552 77.8439 38.8397C78.5385 39.1275 79.2832 39.2744 80.035 39.272C80.7875 39.2748 81.5329 39.1281 82.2282 38.8404C82.9235 38.5526 83.5546 38.1297 84.085 37.596C85.017 36.6667 85.5986 35.4434 85.731 34.134L85.759 33.548ZM123.279 27.564C124.066 28.3491 124.689 29.2819 125.114 30.3089C125.539 31.3358 125.757 32.4366 125.755 33.548L125.729 40.606C125.729 42.942 124.779 45.072 123.247 46.6C122.461 47.386 121.527 48.0093 120.5 48.4341C119.472 48.859 118.371 49.0771 117.259 49.076C115.093 49.0767 113.009 48.2447 111.439 46.752C111.375 46.662 111.349 46.544 111.451 46.42L113.063 44.806C113.185 44.72 113.307 44.764 113.393 44.83C114.447 45.7993 115.827 46.3363 117.259 46.334C118.011 46.3355 118.756 46.1881 119.451 45.9005C120.146 45.6129 120.778 45.1906 121.309 44.658C121.842 44.1263 122.264 43.4946 122.552 42.7993C122.84 42.1039 122.988 41.3586 122.987 40.606V39.814C121.377 41.2785 119.265 42.0667 117.089 42.0149C114.914 41.9632 112.841 41.0754 111.303 39.536C110.517 38.7501 109.893 37.817 109.467 36.7898C109.041 35.7627 108.822 34.6618 108.822 33.55C108.822 32.4381 109.041 31.3372 109.467 30.3101C109.893 29.283 110.517 28.3498 111.303 27.564C112.088 26.7755 113.021 26.1504 114.049 25.7247C115.077 25.2991 116.179 25.0813 117.291 25.084C118.403 25.0818 119.505 25.2999 120.533 25.7255C121.561 26.1511 122.494 26.776 123.279 27.564ZM123.011 33.548H123.015C123.016 32.7962 122.869 32.0515 122.581 31.357C122.293 30.6626 121.87 30.0321 121.337 29.502C120.807 28.9692 120.176 28.5465 119.482 28.2582C118.787 27.9699 118.043 27.8216 117.291 27.822C116.539 27.8215 115.794 27.9697 115.099 28.258C114.405 28.5463 113.774 28.969 113.243 29.502C112.71 30.0322 112.288 30.6627 112 31.3572C111.712 32.0517 111.565 32.7963 111.567 33.548C111.567 35.134 112.205 36.556 113.243 37.596C113.773 38.1294 114.404 38.5523 115.099 38.84C115.794 39.1277 116.539 39.2745 117.291 39.272C118.043 39.2744 118.788 39.1275 119.482 38.8397C120.177 38.552 120.807 38.1293 121.337 37.596C122.271 36.6676 122.854 35.4441 122.987 34.134L123.011 33.548ZM141.966 27.564C142.754 28.3483 143.379 29.2809 143.804 30.3079C144.23 31.335 144.448 32.4362 144.446 33.548C144.448 34.6604 144.23 35.7622 143.805 36.7899C143.379 37.8177 142.754 38.7509 141.966 39.536C141.181 40.3238 140.249 40.9486 139.222 41.3746C138.195 41.8006 137.094 42.0192 135.982 42.018C134.87 42.019 133.769 41.8002 132.742 41.3743C131.715 40.9483 130.783 40.3236 129.998 39.536C129.211 38.7503 128.587 37.8168 128.162 36.7892C127.736 35.7616 127.518 34.6601 127.52 33.548C127.52 31.216 128.466 29.092 129.998 27.564C130.782 26.7759 131.715 26.151 132.742 25.7254C133.769 25.2997 134.87 25.0817 135.982 25.084C137.094 25.0815 138.195 25.2994 139.222 25.725C140.249 26.1507 141.182 26.7757 141.966 27.564ZM140.03 37.596C140.563 37.0656 140.986 36.4347 141.273 35.7398C141.561 35.045 141.708 34.3 141.706 33.548C141.708 32.7962 141.561 32.0515 141.274 31.3569C140.986 30.6624 140.563 30.0319 140.03 29.502C138.957 28.4275 137.501 27.8232 135.982 27.822C134.463 27.8232 133.006 28.4275 131.932 29.502C131.4 30.0325 130.978 30.6632 130.691 31.3576C130.403 32.052 130.256 32.7965 130.258 33.548C130.258 35.134 130.896 36.556 131.932 37.596C132.463 38.1293 133.094 38.5521 133.789 38.8398C134.484 39.1275 135.23 39.2744 135.982 39.272C136.734 39.2744 137.479 39.1274 138.174 38.8397C138.869 38.552 139.5 38.1293 140.03 37.596ZM104.623 27.564C105.41 28.3491 106.034 29.2819 106.459 30.3088C106.885 31.3356 107.104 32.4364 107.103 33.548C107.103 35.884 106.153 38.006 104.623 39.536C103.838 40.3238 102.904 40.9486 101.877 41.3746C100.849 41.8005 99.7474 42.0192 98.635 42.018C97.5232 42.019 96.4222 41.8002 95.3953 41.3743C94.3683 40.9483 93.4357 40.3236 92.651 39.536C91.8631 38.7506 91.2382 37.8173 90.8121 36.7897C90.386 35.7621 90.1671 34.6604 90.168 33.548C90.1674 32.4362 90.3864 31.3352 90.8125 30.3082C91.2386 29.2813 91.8634 28.3487 92.651 27.564C93.4353 26.7759 94.3679 26.151 95.3949 25.7254C96.422 25.2997 97.5232 25.0817 98.635 25.084C99.7474 25.0814 100.849 25.2993 101.877 25.725C102.905 26.1506 103.838 26.7757 104.623 27.564ZM102.685 37.596C103.217 37.0648 103.639 36.4337 103.927 35.7391C104.214 35.0444 104.362 34.2998 104.361 33.548C104.359 32.0299 103.755 30.5746 102.682 29.5011C101.608 28.4277 100.153 27.8238 98.635 27.822C97.1164 27.8235 95.6605 28.4278 94.587 29.502C94.0548 30.0325 93.6329 30.6632 93.3456 31.3576C93.0582 32.052 92.9112 32.7965 92.913 33.548C92.913 35.134 93.551 36.556 94.587 37.596C95.1174 38.1292 95.7483 38.5518 96.4431 38.8395C97.138 39.1272 97.883 39.2742 98.635 39.272C99.3874 39.2744 100.133 39.1275 100.828 38.8398C101.523 38.5521 102.154 38.1293 102.685 37.596ZM166.318 27.564C167.106 28.3486 167.731 29.2812 168.157 30.3081C168.583 31.3351 168.802 32.4361 168.802 33.548C168.803 34.6605 168.584 35.7622 168.157 36.7898C167.731 37.8173 167.106 38.7506 166.318 39.536C165.533 40.3241 164.6 40.9491 163.573 41.3751C162.546 41.8011 161.444 42.0196 160.332 42.018C158.657 42.0181 157.02 41.5217 155.628 40.5914C154.235 39.6611 153.15 38.3388 152.509 36.7916C151.868 35.2444 151.7 33.5419 152.027 31.8994C152.353 30.2569 153.16 28.7482 154.344 27.564C155.129 26.7763 156.063 26.1517 157.09 25.726C158.118 25.3004 159.22 25.0822 160.332 25.084C161.444 25.0813 162.546 25.2991 163.573 25.7247C164.601 26.1504 165.534 26.7755 166.318 27.564ZM164.38 37.596C164.914 37.0659 165.338 36.4352 165.626 35.7403C165.915 35.0455 166.063 34.3004 166.062 33.548C166.063 32.7958 165.915 32.0509 165.627 31.3564C165.338 30.6619 164.914 30.0315 164.38 29.502C163.849 28.9696 163.218 28.5472 162.523 28.2589C161.829 27.9706 161.084 27.8221 160.332 27.822C158.813 27.8235 157.357 28.4278 156.284 29.502C155.752 30.0328 155.33 30.6635 155.043 31.3579C154.756 32.0522 154.609 32.7965 154.61 33.548C154.609 34.2997 154.756 35.0442 155.043 35.7389C155.331 36.4335 155.752 37.0646 156.284 37.596C156.814 38.1292 157.445 38.5518 158.14 38.8395C158.835 39.1272 159.58 39.2742 160.332 39.272C161.084 39.2747 161.829 39.128 162.524 38.8403C163.219 38.5526 163.85 38.1296 164.38 37.596Z" fill="white"/>
</svg>
