<svg width="141" height="42" viewBox="0 0 141 42" fill="none" xmlns="http://www.w3.org/2000/svg">
<g clip-path="url(#clip0)">
<path d="M134 0H7.34375C3.71938 0 0.78125 2.93813 0.78125 6.5625V35.4375C0.78125 39.0619 3.71938 42 7.34375 42H134C137.624 42 140.562 39.0619 140.562 35.4375V6.5625C140.562 2.93813 137.624 0 134 0Z" fill="#F1F0F2"/>
<path fill-rule="evenodd" clip-rule="evenodd" d="M109.1 20.6533H110.94V8.3209H109.1V20.6533ZM125.679 12.7632L123.57 18.1101H123.506L121.317 12.7632H119.334L122.618 20.236L120.746 24.3932H122.665L127.727 12.7632H125.679ZM115.239 19.2524C114.637 19.2524 113.797 18.9506 113.797 18.2048C113.797 17.2538 114.843 16.8878 115.748 16.8878C116.556 16.8878 116.938 17.0634 117.429 17.3001C117.287 18.4435 116.303 19.2524 115.239 19.2524ZM115.462 12.4929C114.129 12.4929 112.749 13.0808 112.178 14.381L113.812 15.0637C114.162 14.381 114.812 14.1591 115.494 14.1591C116.446 14.1591 117.414 14.7303 117.429 15.7454V15.8727C117.096 15.6823 116.382 15.3972 115.509 15.3972C113.748 15.3972 111.955 16.3649 111.955 18.1732C111.955 19.8236 113.399 20.8871 115.018 20.8871C116.255 20.8871 116.938 20.3317 117.366 19.6806H117.429V20.6326H119.207V15.9042C119.207 13.7151 117.572 12.4929 115.462 12.4929ZM104.086 14.2646H101.467V10.0374H104.086C105.462 10.0374 106.243 11.1759 106.243 12.1505C106.243 13.1065 105.462 14.2646 104.086 14.2646ZM104.038 8.31992H99.6274V20.6533H101.467V15.9812H104.038C106.078 15.9812 108.085 14.5044 108.085 12.1505C108.085 9.79771 106.078 8.31992 104.038 8.31992ZM79.986 19.2544C78.7144 19.2544 77.6499 18.19 77.6499 16.728C77.6499 15.2492 78.7144 14.1689 79.986 14.1689C81.2418 14.1689 82.2274 15.2492 82.2274 16.728C82.2274 18.19 81.2418 19.2544 79.986 19.2544ZM82.1001 13.4537H82.036C81.6226 12.9615 80.8285 12.5156 79.8272 12.5156C77.7289 12.5156 75.8062 14.3603 75.8062 16.728C75.8062 19.0798 77.7289 20.9078 79.8272 20.9078C80.8285 20.9078 81.6226 20.4629 82.036 19.9538H82.1001V20.5576C82.1001 22.1636 81.2418 23.0209 79.8587 23.0209C78.7312 23.0209 78.0317 22.211 77.7456 21.5273L76.1406 22.1952C76.6003 23.307 77.8246 24.6743 79.8587 24.6743C82.0212 24.6743 83.8482 23.4027 83.8482 20.3031V12.7701H82.1001V13.4537ZM85.1198 20.6533H86.9626V8.3209H85.1198V20.6533ZM89.6805 16.5849C89.6331 14.9631 90.9373 14.1374 91.8745 14.1374C92.6055 14.1374 93.225 14.5034 93.4322 15.0272L89.6805 16.5849ZM95.4022 15.186C95.053 14.2489 93.9876 12.5156 91.8103 12.5156C89.6489 12.5156 87.8534 14.2163 87.8534 16.7122C87.8534 19.064 89.6331 20.9078 92.0165 20.9078C93.9402 20.9078 95.053 19.7319 95.5137 19.0482L94.0833 18.0943C93.6068 18.7937 92.9557 19.2544 92.0165 19.2544C91.0793 19.2544 90.4115 18.8253 89.9833 17.9828L95.5926 15.6625L95.4022 15.186ZM50.7054 13.8039V15.5836H54.9651C54.8378 16.5849 54.5044 17.3159 53.9954 17.824C53.3749 18.4445 52.4061 19.1281 50.7054 19.1281C48.0832 19.1281 46.0332 17.014 46.0332 14.3919C46.0332 11.7697 48.0832 9.65467 50.7054 9.65467C52.12 9.65467 53.1529 10.2111 53.9155 10.9273L55.1713 9.67144C54.1068 8.65434 52.6922 7.875 50.7054 7.875C47.1135 7.875 44.0938 10.8 44.0938 14.3919C44.0938 17.9828 47.1135 20.9078 50.7054 20.9078C52.6438 20.9078 54.1068 20.2715 55.2502 19.0798C56.4271 17.9039 56.7921 16.2515 56.7921 14.9157C56.7921 14.5034 56.7606 14.1216 56.6974 13.8039H50.7054ZM61.6349 19.2544C60.3633 19.2544 59.2663 18.2057 59.2663 16.7122C59.2663 15.2018 60.3633 14.1689 61.6349 14.1689C62.9065 14.1689 64.0025 15.2018 64.0025 16.7122C64.0025 18.2057 62.9065 19.2544 61.6349 19.2544ZM61.6349 12.5156C59.3146 12.5156 57.4235 14.2804 57.4235 16.7122C57.4235 19.1281 59.3146 20.9078 61.6349 20.9078C63.9552 20.9078 65.8463 19.1281 65.8463 16.7122C65.8463 14.2804 63.9552 12.5156 61.6349 12.5156ZM70.8223 19.2544C69.5507 19.2544 68.4547 18.2057 68.4547 16.7122C68.4547 15.2018 69.5507 14.1689 70.8223 14.1689C72.0939 14.1689 73.1899 15.2018 73.1899 16.7122C73.1899 18.2057 72.0939 19.2544 70.8223 19.2544ZM70.8223 12.5156C68.502 12.5156 66.6109 14.2804 66.6109 16.7122C66.6109 19.1281 68.502 20.9078 70.8223 20.9078C73.1436 20.9078 75.0347 19.1281 75.0347 16.7122C75.0347 14.2804 73.1436 12.5156 70.8223 12.5156Z" fill="#393F54"/>
<path fill-rule="evenodd" clip-rule="evenodd" d="M50.7542 30.1206C50.7287 30.1808 50.6533 30.232 50.5458 30.2388C50.2965 31.3668 49.8299 33.0315 49.4387 33.9707L48.94 33.8252C49.3057 32.8519 49.7302 31.136 49.9463 29.9409L50.7542 30.1206ZM46.369 30.0091C46.8023 31.1621 47.1015 32.6301 47.1514 33.6114C47.0926 33.6114 47.035 33.6205 46.5762 33.7399C46.5441 32.7745 46.2449 31.2895 45.8371 30.1456L46.369 30.0091ZM51.736 28.9766V29.5395H44.7133V28.9766H47.8828V27.2346L48.6242 27.2869C48.6153 27.3461 48.5732 27.3893 48.458 27.4052V28.9766H51.736ZM44.4219 34.7815H51.9688V34.2095H44.4219V34.7815Z" fill="#393F54"/>
<path fill-rule="evenodd" clip-rule="evenodd" d="M50.7542 30.1206C50.7287 30.1808 50.6533 30.232 50.5458 30.2388C50.2965 31.3668 49.8299 33.0315 49.4387 33.9707L48.94 33.8252C49.3057 32.8519 49.7302 31.136 49.9463 29.9409L50.7542 30.1206ZM46.369 30.0091C46.8023 31.1621 47.1015 32.6301 47.1514 33.6114C47.0926 33.6114 47.035 33.6205 46.5762 33.7399C46.5441 32.7745 46.2449 31.2895 45.8371 30.1456L46.369 30.0091ZM51.736 28.9766V29.5395H44.7133V28.9766H47.8828V27.2346L48.6242 27.2869C48.6153 27.3461 48.5732 27.3893 48.458 27.4052V28.9766H51.736ZM44.4219 34.7815H51.9688V34.2095H44.4219V34.7815Z" stroke="#393F54" stroke-width="0.2625"/>
<path fill-rule="evenodd" clip-rule="evenodd" d="M60.1719 27.8906V33.2405C60.1719 33.9855 59.805 34.0027 58.5864 34.0027C58.5603 33.8381 58.466 33.5617 58.3808 33.3971C58.6625 33.4051 58.926 33.4143 59.1225 33.4143C59.5404 33.4143 59.5915 33.4143 59.5915 33.2324V28.4698H57.6733V35.4375H57.0929V27.8906H60.1719ZM53.7766 31.3486H55.7539V30.1464H53.7766V31.3486ZM53.7766 29.619H55.7539V28.4433H53.7766V29.619ZM55.4904 33.5088C55.2338 33.138 54.9532 32.766 54.6716 32.4551L55.1156 32.2041C55.7471 32.9042 56.4194 33.8461 56.7091 34.4783L56.2321 34.7627C56.1298 34.5301 55.9686 34.2446 55.7891 33.9509C54.7488 34.2872 53.6824 34.6245 52.993 34.8318C52.9839 34.9009 52.9407 34.9447 52.8817 34.97L52.625 34.2872C52.8056 34.2446 53.0089 34.1927 53.2315 34.1317V27.8906H56.2922V31.8932H53.7766V33.9855L55.4904 33.5088Z" fill="#393F54"/>
<path fill-rule="evenodd" clip-rule="evenodd" d="M60.1719 27.8906V33.2405C60.1719 33.9855 59.805 34.0027 58.5864 34.0027C58.5603 33.8381 58.466 33.5617 58.3808 33.3971C58.6625 33.4051 58.926 33.4143 59.1225 33.4143C59.5404 33.4143 59.5915 33.4143 59.5915 33.2324V28.4698H57.6733V35.4375H57.0929V27.8906H60.1719ZM53.7766 31.3486H55.7539V30.1464H53.7766V31.3486ZM53.7766 29.619H55.7539V28.4433H53.7766V29.619ZM55.4904 33.5088C55.2338 33.138 54.9532 32.766 54.6716 32.4551L55.1156 32.2041C55.7471 32.9042 56.4194 33.8461 56.7091 34.4783L56.2321 34.7627C56.1298 34.5301 55.9686 34.2446 55.7891 33.9509C54.7488 34.2872 53.6824 34.6245 52.993 34.8318C52.9839 34.9009 52.9407 34.9447 52.8817 34.97L52.625 34.2872C52.8056 34.2446 53.0089 34.1927 53.2315 34.1317V27.8906H56.2922V31.8932H53.7766V33.9855L55.4904 33.5088Z" stroke="#393F54" stroke-width="0.2625"/>
<path fill-rule="evenodd" clip-rule="evenodd" d="M69.0312 28.4577H65.4793L65.3878 28.4825V29.956L65.4291 29.9053C66.4933 30.4295 67.8666 31.2165 68.5616 31.7587L68.1689 32.2661C67.5654 31.7745 66.3929 31.0564 65.3878 30.5141V35.1094H64.7932V28.4577H61.4844V27.8906H69.0312V28.4577Z" fill="#393F54"/>
<path fill-rule="evenodd" clip-rule="evenodd" d="M69.0312 28.4577H65.4793L65.3878 28.4825V29.956L65.4291 29.9053C66.4933 30.4295 67.8666 31.2165 68.5616 31.7587L68.1689 32.2661C67.5654 31.7745 66.3929 31.0564 65.3878 30.5141V35.1094H64.7932V28.4577H61.4844V27.8906H69.0312V28.4577Z" stroke="#393F54" stroke-width="0.2625"/>
<path fill-rule="evenodd" clip-rule="evenodd" d="M76.2971 27.3685C76.7503 27.7077 77.2902 28.1979 77.5311 28.5371L77.1019 28.8662C76.8622 28.5112 76.3394 28.0029 75.8862 27.648L76.2971 27.3685ZM72.5097 32.9197H73.6489V32.3946H72.5097V32.9197ZM72.5097 32.0475H73.6489V31.5314H72.5097V32.0475ZM70.9414 32.9197H72.0474V32.3946H70.9414V32.9197ZM70.9414 32.0475H72.0474V31.5314H70.9414V32.0475ZM75.328 29.6449C75.4056 30.72 75.5426 31.7094 75.7401 32.5118C76.2115 31.7861 76.5791 30.9735 76.853 30.1272L77.5219 30.3132C77.4968 30.3729 77.4363 30.4056 77.3416 30.4056C77.0163 31.4051 76.546 32.3687 75.9376 33.2139C76.2195 34.0354 76.5791 34.5437 77.0163 34.5437C77.2731 34.5437 77.3758 34.112 77.4272 33.0539C77.5482 33.1722 77.7457 33.3085 77.8906 33.3514C77.7879 34.6958 77.5824 35.1015 76.974 35.1015C76.3485 35.1015 75.8771 34.5854 75.5255 33.7311C75.0883 34.2642 74.5826 34.7296 74.0176 35.1015C73.9229 34.9663 73.7517 34.7882 73.5976 34.6778C73.811 34.5437 74.0256 34.3904 74.2231 34.2304H72.5348V35.1094H72.0121V34.2304H70.1184V33.774H72.0121V33.2736H70.495V31.1764H72.0121V30.685H70.2553V30.2455H72.0121V29.6787L72.7141 29.7305C72.7061 29.7812 72.6547 29.8229 72.544 29.8387V30.2455H74.3429V30.685H72.544V31.1764H74.1112V33.2736H72.5348V33.774H74.3772V34.1042C74.7105 33.8078 75.029 33.4686 75.312 33.1057C75.029 32.167 74.8566 30.9645 74.763 29.6449H70.0156V29.1535H72.0121V28.4188H70.4014V27.9443H72.0121V27.2344L72.7403 27.2761C72.7323 27.3358 72.6889 27.3775 72.5691 27.3944V27.9443H74.1717V28.4188H72.5691V29.1535H74.7379C74.7036 28.5371 74.6774 27.8936 74.6774 27.2513C75.2515 27.2761 75.3451 27.2851 75.4308 27.2941C75.4308 27.3606 75.3794 27.4023 75.2595 27.4203C75.2595 28.012 75.2687 28.5878 75.2938 29.1535H77.7879V29.6449H75.328Z" fill="#393F54"/>
<path fill-rule="evenodd" clip-rule="evenodd" d="M76.2971 27.3685C76.7503 27.7077 77.2902 28.1979 77.5311 28.5371L77.1019 28.8662C76.8622 28.5112 76.3394 28.0029 75.8862 27.648L76.2971 27.3685ZM72.5097 32.9197H73.6489V32.3946H72.5097V32.9197ZM72.5097 32.0475H73.6489V31.5314H72.5097V32.0475ZM70.9414 32.9197H72.0474V32.3946H70.9414V32.9197ZM70.9414 32.0475H72.0474V31.5314H70.9414V32.0475ZM75.328 29.6449C75.4056 30.72 75.5426 31.7094 75.7401 32.5118C76.2115 31.7861 76.5791 30.9735 76.853 30.1272L77.5219 30.3132C77.4968 30.3729 77.4363 30.4056 77.3416 30.4056C77.0163 31.4051 76.546 32.3687 75.9376 33.2139C76.2195 34.0354 76.5791 34.5437 77.0163 34.5437C77.2731 34.5437 77.3758 34.112 77.4272 33.0539C77.5482 33.1722 77.7457 33.3085 77.8906 33.3514C77.7879 34.6958 77.5824 35.1015 76.974 35.1015C76.3485 35.1015 75.8771 34.5854 75.5255 33.7311C75.0883 34.2642 74.5826 34.7296 74.0176 35.1015C73.9229 34.9663 73.7517 34.7882 73.5976 34.6778C73.811 34.5437 74.0256 34.3904 74.2231 34.2304H72.5348V35.1094H72.0121V34.2304H70.1184V33.774H72.0121V33.2736H70.495V31.1764H72.0121V30.685H70.2553V30.2455H72.0121V29.6787L72.7141 29.7305C72.7061 29.7812 72.6547 29.8229 72.544 29.8387V30.2455H74.3429V30.685H72.544V31.1764H74.1112V33.2736H72.5348V33.774H74.3772V34.1042C74.7105 33.8078 75.029 33.4686 75.312 33.1057C75.029 32.167 74.8566 30.9645 74.763 29.6449H70.0156V29.1535H72.0121V28.4188H70.4014V27.9443H72.0121V27.2344L72.7403 27.2761C72.7323 27.3358 72.6889 27.3775 72.5691 27.3944V27.9443H74.1717V28.4188H72.5691V29.1535H74.7379C74.7036 28.5371 74.6774 27.8936 74.6774 27.2513C75.2515 27.2761 75.3451 27.2851 75.4308 27.2941C75.4308 27.3606 75.3794 27.4023 75.2595 27.4203C75.2595 28.012 75.2687 28.5878 75.2938 29.1535H77.7879V29.6449H75.328Z" stroke="#393F54" stroke-width="0.2625"/>
<path fill-rule="evenodd" clip-rule="evenodd" d="M12.0906 7.94951C11.7875 8.26823 11.6094 8.76183 11.6094 9.40237V32.2685C11.6094 32.909 11.7875 33.4037 12.0906 33.7213L12.1677 33.7969L25.0625 20.987V20.8359V20.6849L12.1677 7.875L12.0906 7.94951Z" fill="#393F54" stroke="#F1F0F2" stroke-width="1.3125"/>
<path fill-rule="evenodd" clip-rule="evenodd" d="M25.012 20.8338V20.9829V21.1319L29.3129 25.3459L29.4109 25.2918L34.507 22.4549C35.2346 22.0507 35.5994 21.5168 35.5994 20.9829C35.5994 20.449 35.2346 19.9151 34.507 19.5108L29.4109 16.675L29.3139 16.6208L25.012 20.8338Z" fill="#393F54" stroke="#F1F0F2" stroke-width="1.3125"/>
<path fill-rule="evenodd" clip-rule="evenodd" d="M12.0788 33.7241C12.5577 34.2158 13.349 34.2764 14.2403 33.7857L29.4371 25.413L25.0434 21.1514L12.0788 33.7241ZM12.0788 7.95543L25.0434 21.1179L29.4371 16.6575L14.2403 7.89095C13.8227 7.64996 13.4261 7.53687 13.0742 7.53687C12.6754 7.53687 12.3328 7.68273 12.0788 7.95543Z" fill="#393F54" stroke="#F1F0F2" stroke-width="1.3125"/>
</g>
<defs>
<clipPath id="clip0">
<rect width="139.781" height="42" fill="white" transform="translate(0.78125)"/>
</clipPath>
</defs>
</svg>
