<svg width="288" height="168" viewBox="0 0 288 168" fill="none" xmlns="http://www.w3.org/2000/svg">
<g clip-path="url(#clip0)">
<path d="M240.731 24.7313C240.731 77.9254 197.521 121.064 144.199 121.064C90.8779 121.064 47.6676 77.9254 47.6676 24.7313C47.6676 12.064 37.3987 1.79504 24.7313 1.79504C12.064 1.79504 1.79504 12.064 1.79504 24.7313C1.79504 103.277 65.5603 166.936 144.199 166.936C222.839 166.936 286.604 103.277 286.604 24.7313C286.604 12.064 276.335 1.79504 263.668 1.79504C251 1.79504 240.731 12.064 240.731 24.7313Z" fill="#F9FCFF"/>
<path fill-rule="evenodd" clip-rule="evenodd" d="M263.867 47.4682C251.22 47.4682 240.931 37.1791 240.931 24.5319C240.931 11.8847 251.22 1.59558 263.867 1.59558C276.514 1.59558 286.803 11.8847 286.803 24.5319C286.803 37.1791 276.514 47.4682 263.867 47.4682Z" fill="white"/>
<path fill-rule="evenodd" clip-rule="evenodd" d="M263.468 0C249.941 0 238.936 11.0049 238.936 24.5319C238.936 38.0588 249.941 49.0637 263.468 49.0637C276.996 49.0637 288 38.0588 288 24.5319C288 11.0049 276.996 0 263.468 0ZM263.468 2.8839C275.424 2.8839 285.116 12.5762 285.116 24.5319C285.116 36.488 275.424 46.1798 263.468 46.1798C251.512 46.1798 241.82 36.488 241.82 24.5319C241.82 12.5762 251.512 2.8839 263.468 2.8839Z" fill="#06F3F9"/>
<path fill-rule="evenodd" clip-rule="evenodd" d="M263.667 41.0859C258.561 41.0859 254.065 37.9261 252.213 33.0353C251.881 32.1593 252.303 31.1722 253.155 30.8314C254.007 30.4897 254.967 30.9236 255.299 31.8C256.652 35.3727 259.937 37.6809 263.667 37.6809C267.398 37.6809 270.683 35.3727 272.036 31.8C272.368 30.9236 273.327 30.4897 274.18 30.8314C275.032 31.1727 275.454 32.1593 275.122 33.0353C273.27 37.9261 268.774 41.0859 263.667 41.0859ZM269.85 20.7099C268.623 20.7099 267.624 21.7084 267.624 22.936C267.624 24.1637 268.623 25.1627 269.85 25.1627C271.078 25.1627 272.076 24.1637 272.076 22.936C272.076 21.7084 271.078 20.7099 269.85 20.7099ZM269.85 28.3213C266.881 28.3213 264.465 25.9053 264.465 22.936C264.465 19.9667 266.881 17.5512 269.85 17.5512C272.82 17.5512 275.235 19.9667 275.235 22.936C275.235 25.9053 272.82 28.3213 269.85 28.3213ZM257.454 18.2197V20.7962C257.454 20.9168 257.549 21.0148 257.666 21.0148H259.589V23.1388C259.589 24.3514 258.625 25.3694 257.446 25.3488C256.301 25.3291 255.376 24.3649 255.376 23.182V15.5533C255.376 14.346 256.336 13.3284 257.51 13.3438C258.584 13.3573 259.468 14.2043 259.577 15.2838C259.588 15.3957 259.678 15.4827 259.787 15.4827H262.647C262.768 15.4827 262.866 15.3784 262.86 15.254C262.728 12.2975 260.333 9.93854 257.42 9.97266C254.461 10.0072 252.1 12.5353 252.1 15.5807V23.1114C252.1 26.1607 254.466 28.6906 257.43 28.7199C260.422 28.7497 262.866 26.2539 262.866 23.182V21.0148H262.87V18.1102C262.87 18.0501 262.822 18.0011 262.763 18.0011H257.666C257.549 18.0011 257.454 18.0991 257.454 18.2197Z" fill="#06F3F9"/>
<path fill-rule="evenodd" clip-rule="evenodd" d="M24.5321 47.4682C11.885 47.4682 1.59558 37.1791 1.59558 24.5319C1.59558 11.8847 11.885 1.59558 24.5321 1.59558C37.1792 1.59558 47.4682 11.8847 47.4682 24.5319C47.4682 37.1791 37.1792 47.4682 24.5321 47.4682Z" fill="white"/>
<path fill-rule="evenodd" clip-rule="evenodd" d="M24.6532 0.0830078C11.2474 0.0830078 0.340454 11.0657 0.340454 24.5653C0.340454 38.0649 11.2474 49.0476 24.6532 49.0476C38.059 49.0476 48.9655 38.0649 48.9655 24.5653C48.9655 11.0657 38.059 0.0830078 24.6532 0.0830078ZM24.6532 2.96107C36.5018 2.96107 46.1074 12.6338 46.1074 24.5653C46.1074 36.4973 36.5018 46.1695 24.6532 46.1695C12.8041 46.1695 3.19853 36.4973 3.19853 24.5653C3.19853 12.6338 12.8041 2.96107 24.6532 2.96107Z" fill="#06F3F9"/>
<path fill-rule="evenodd" clip-rule="evenodd" d="M24.7311 41.0859C19.6251 41.0859 15.129 37.9261 13.2768 33.0353C12.9449 32.1593 13.3665 31.1722 14.219 30.8314C15.0707 30.4897 16.0309 30.9236 16.3628 31.8C17.7161 35.3727 21.0012 37.6809 24.7311 37.6809C28.4614 37.6809 31.7465 35.3727 33.0999 31.8C33.4313 30.9236 34.3915 30.4897 35.2436 30.8314C36.0962 31.1727 36.5177 32.1593 36.1858 33.0353C34.3332 37.9261 29.837 41.0859 24.7311 41.0859ZM31.3133 20.7099C30.0856 20.7099 29.0866 21.7084 29.0866 22.936C29.0866 24.1637 30.0856 25.1627 31.3133 25.1627C32.541 25.1627 33.5399 24.1637 33.5399 22.936C33.5399 21.7084 32.541 20.7099 31.3133 20.7099ZM31.3133 28.3213C28.344 28.3213 25.928 25.9053 25.928 22.936C25.928 19.9667 28.344 17.5512 31.3133 17.5512C34.2826 17.5512 36.6981 19.9667 36.6981 22.936C36.6981 25.9053 34.2826 28.3213 31.3133 28.3213ZM18.5177 18.2197V20.7962C18.5177 20.9168 18.6129 21.0148 18.7301 21.0148H20.6531V23.1388C20.6531 24.3514 19.6888 25.3694 18.5102 25.3488C17.3657 25.3291 16.4401 24.3649 16.4401 23.182V15.5533C16.4401 14.346 17.4002 13.3284 18.5732 13.3438C19.6482 13.3573 20.5312 14.2043 20.641 15.2838C20.6526 15.3957 20.7414 15.4827 20.8506 15.4827H23.7108C23.8317 15.4827 23.9289 15.3784 23.9237 15.254C23.7916 12.2975 21.397 9.93854 18.4841 9.97266C15.5244 10.0072 13.1635 12.5353 13.1635 15.5807V23.1114C13.1635 26.1607 15.53 28.6906 18.4934 28.7199C21.4862 28.7497 23.9298 26.2539 23.9298 23.182V21.0148H23.9335V18.1102C23.9335 18.0501 23.8859 18.0011 23.8275 18.0011H18.7301C18.6129 18.0011 18.5177 18.0991 18.5177 18.2197Z" fill="#06F3F9"/>
</g>
<defs>
<clipPath id="clip0">
<rect width="288" height="167.136" fill="white"/>
</clipPath>
</defs>
</svg>
