<svg width="32" height="32" viewBox="0 0 32 32" fill="none" xmlns="http://www.w3.org/2000/svg">
<g clip-path="url(#clip0)">
<path d="M32 16C32 24.8379 24.8379 32 16 32C7.16206 32 0 24.8379 0 16C0 7.16206 7.16206 0 16 0C24.8379 0 32 7.16206 32 16ZM16 7.80125C18.6719 7.80125 18.9881 7.81313 20.0387 7.86C21.0156 7.90313 21.5425 8.06687 21.8944 8.20375C22.3594 8.38375 22.695 8.6025 23.0425 8.95C23.3944 9.30188 23.6087 9.63375 23.7925 10.0988C23.9294 10.4506 24.0931 10.9813 24.1362 11.9544C24.1831 13.0094 24.195 13.3256 24.195 15.9937C24.195 18.6619 24.1831 18.9819 24.1362 20.0331C24.0931 21.01 23.9294 21.5369 23.7925 21.8888C23.6125 22.3538 23.3944 22.6894 23.0462 23.0369C22.6944 23.3888 22.3625 23.6031 21.8981 23.7869C21.5462 23.9237 21.015 24.0875 20.0425 24.1306C18.9875 24.1775 18.6712 24.1894 16.0031 24.1894C13.335 24.1894 13.015 24.1775 11.9637 24.1306C10.9869 24.0875 10.46 23.9237 10.1081 23.7869C9.64312 23.6069 9.3075 23.3888 8.95938 23.0406C8.6075 22.6887 8.39313 22.3569 8.20938 21.8925C8.0725 21.5406 7.90875 21.0094 7.86562 20.0369C7.81875 18.9819 7.80688 18.6656 7.80688 15.9975C7.80688 13.3294 7.81875 13.0094 7.86562 11.9581C7.90875 10.9812 8.0725 10.4544 8.20938 10.1025C8.38938 9.6375 8.60812 9.30188 8.95562 8.95375C9.3075 8.60187 9.63937 8.3875 10.1044 8.20375C10.4563 8.06687 10.9869 7.90313 11.96 7.86C13.0106 7.81313 13.3275 7.80125 15.9994 7.80125H16ZM16 6.00063C13.285 6.00063 12.9456 6.0125 11.8787 6.05937C10.8162 6.10625 10.0856 6.27812 9.45312 6.52437C8.79313 6.78188 8.23438 7.12187 7.68 7.68062C7.12125 8.23563 6.78125 8.79375 6.52375 9.45C6.2775 10.0869 6.10563 10.8131 6.05875 11.8756C6.01188 12.9462 6 13.2856 6 16.0006C6 18.7156 6.01188 19.055 6.05875 20.1219C6.10563 21.1844 6.2775 21.915 6.52375 22.5475C6.78187 23.2075 7.12125 23.7663 7.68 24.3206C8.23438 24.875 8.79313 25.2194 9.44938 25.4731C10.0863 25.7194 10.8125 25.8913 11.875 25.9381C12.9412 25.985 13.2812 25.9969 15.9963 25.9969C18.7113 25.9969 19.0513 25.985 20.1175 25.9381C21.18 25.8913 21.9106 25.7194 22.5431 25.4731C23.1994 25.2194 23.7581 24.8756 24.3125 24.3206C24.8669 23.7656 25.2113 23.2075 25.465 22.5513C25.7113 21.9144 25.8831 21.1881 25.93 20.1256C25.9769 19.0594 25.9888 18.7194 25.9888 16.0044C25.9888 13.2894 25.9769 12.95 25.93 11.8831C25.8831 10.8206 25.7113 10.09 25.465 9.4575C25.2188 8.79313 24.8787 8.235 24.3206 7.68C23.7663 7.12562 23.2075 6.78125 22.5513 6.5275C21.9144 6.28125 21.1881 6.10938 20.1256 6.0625C19.0556 6.01188 18.7156 6 16.0006 6L16 6.00063ZM16 10.8638C13.1644 10.8638 10.8631 13.1644 10.8631 16.0006C10.8631 18.8369 13.1637 21.1375 16 21.1375C18.8363 21.1375 21.1369 18.8369 21.1369 16.0006C21.1369 13.165 18.8363 10.8638 16 10.8638ZM16 19.3325C14.16 19.3325 12.6681 17.8406 12.6681 16.0006C12.6681 14.1606 14.16 12.6687 16 12.6687C17.84 12.6687 19.3319 14.1606 19.3319 16.0006C19.3319 17.8406 17.84 19.3325 16 19.3325ZM22.5387 10.6606C22.5387 9.99813 22.0019 9.46125 21.3394 9.46125C20.6769 9.46125 20.14 9.99813 20.14 10.6606C20.14 11.3231 20.6769 11.86 21.3394 11.86C22.0019 11.86 22.5387 11.3231 22.5387 10.6606Z" fill="white"/>
</g>
<defs>
<clipPath id="clip0">
<rect width="32" height="32" fill="white"/>
</clipPath>
</defs>
</svg>
