<svg width="32" height="32" viewBox="0 0 32 32" fill="none" xmlns="http://www.w3.org/2000/svg">
<g clip-path="url(#clip0)">
<path d="M16 0C7.16344 0 0 7.16344 0 16C0 24.8366 7.16344 32 16 32C24.8366 32 32 24.8366 32 16C32 7.16344 24.8366 0 16 0ZM12 23H8V11H12V23ZM10 10C8.894 10 8 9.106 8 8C8 6.894 8.894 6 10 6C11.106 6 12 6.894 12 8C12 9.106 11.106 10 10 10ZM25 23H21.3333V16.1429C21.3333 15.1949 20.5138 14.4286 19.5 14.4286C18.4862 14.4286 17.6667 15.1949 17.6667 16.1429V23H14V11H17.6667V13.1266C18.4229 12.1571 19.5798 11 20.875 11C23.1557 11 25 12.9183 25 15.2857V23Z" fill="white"/>
</g>
<defs>
<clipPath id="clip0">
<rect width="32" height="32" fill="white"/>
</clipPath>
</defs>
</svg>
