<svg width="32" height="32" viewBox="0 0 32 32" fill="none" xmlns="http://www.w3.org/2000/svg">
<g clip-path="url(#clip0)">
<path d="M24.1202 10.3811L16 15.9073L7.87981 10.3811C8.03216 10.0429 8.38637 9.8 8.8 9.8H23.2C23.6136 9.8 23.9678 10.0429 24.1202 10.3811ZM24.2 12.2621V21.25C24.2 21.7656 23.7531 22.2 23.2 22.2H8.8C8.24686 22.2 7.8 21.7656 7.8 21.25V12.2621L16 17.8427L24.2 12.2621ZM16 0C24.837 0 32 7.163 32 16C32 24.837 24.837 32 16 32C7.163 32 0 24.837 0 16C0 7.163 7.163 0 16 0ZM8.8 8.2C7.37314 8.2 6.2 9.34055 6.2 10.75V21.25C6.2 22.6595 7.37314 23.8 8.8 23.8H23.2C24.6269 23.8 25.8 22.6595 25.8 21.25V10.75C25.8 9.34055 24.6269 8.2 23.2 8.2H8.8Z" fill="white"/>
</g>
<defs>
<clipPath id="clip0">
<rect width="32" height="32" fill="white"/>
</clipPath>
</defs>
</svg>
