<svg width="94" height="46" viewBox="0 0 94 46" fill="none" xmlns="http://www.w3.org/2000/svg">
<path fill-rule="evenodd" clip-rule="evenodd" d="M17.2174 46C9.64425 46 2.97552 41.4408 0.227986 34.385C-0.26434 33.121 0.361212 31.6974 1.62529 31.2052C2.88918 30.7125 4.31316 31.3381 4.8053 32.6025C6.81259 37.7574 11.6849 41.0877 17.2174 41.0877C22.7503 41.0877 27.6226 37.7574 29.6299 32.6029C30.1218 31.3388 31.5454 30.7125 32.8099 31.2056C34.0741 31.6975 34.6995 33.1213 34.2072 34.3854C31.4596 41.441 24.7905 46 17.2174 46ZM26.3605 16.1655C24.5411 16.1655 23.0606 17.6458 23.0606 19.465C23.0606 21.2846 24.5411 22.7648 26.3605 22.7648C28.1799 22.7648 29.6604 21.2846 29.6604 19.465C29.6604 17.6458 28.1799 16.1655 26.3605 16.1655ZM26.3605 11.4844C30.7612 11.4844 34.3413 15.0645 34.3413 19.465C34.3413 23.8658 30.7612 27.4458 26.3605 27.4458C21.9599 27.4458 18.3797 23.8658 18.3797 19.465C18.3797 15.0645 21.9599 11.4844 26.3605 11.4844ZM8.01359 0.000540692C12.4008 -0.0496739 16.0075 3.40402 16.206 7.73174C16.2143 7.91407 16.0679 8.06657 15.8856 8.06657H11.5779C11.413 8.06657 11.2796 7.93964 11.2625 7.77566C11.0972 6.19473 9.76684 4.95548 8.14774 4.93547C6.38096 4.91342 4.9353 6.40318 4.9353 8.17015V19.338C4.9353 21.069 6.3289 22.4808 8.05287 22.51C9.82799 22.5402 11.2803 21.0497 11.2803 19.2746V16.1652H8.38418C8.20722 16.1652 8.06417 16.022 8.06417 15.845V12.0735C8.06417 11.8968 8.20722 11.7535 8.38418 11.7535H16.0613C16.1497 11.7535 16.2212 11.8253 16.2212 11.9135V16.1652H16.2156V19.338C16.2156 23.8353 12.5351 27.4889 8.02804 27.4453C3.5645 27.4022 0 23.6983 0 19.2346V8.21035C0 3.75237 3.55579 0.0514965 8.01359 0.000540692ZM39.548 17.2186C39.548 15.6684 40.8869 14.3298 43.0006 14.3298C45.185 14.3298 46.2416 15.6684 46.2416 15.6684L44.9734 17.007C44.9734 17.007 44.2686 16.1615 43.1418 16.1615C42.2961 16.1615 41.8028 16.6549 41.8028 17.2186C41.8028 19.0504 46.6646 17.9935 46.6646 21.5165C46.6646 23.2779 45.3257 24.6164 42.9302 24.6164C40.4637 24.6164 39.1959 22.9958 39.1959 22.9958L40.4637 21.7279C40.4637 21.7279 41.3094 22.7848 42.789 22.7848C43.8461 22.7848 44.4097 22.2211 44.4097 21.5165C44.4097 19.6846 39.548 20.7414 39.548 17.2186ZM65.0122 17.007L63.8144 20.248H66.2099L65.0122 17.007ZM63.1096 22.08L62.2641 24.4051H60.0098L63.8848 14.541H66.1397L70.0145 24.4051H67.7599L66.9144 22.08H63.1096ZM76.582 16.4434H74.3976V19.0503H76.582C77.3573 19.0503 77.9204 18.4866 77.9204 17.7819C77.9204 17.007 77.3573 16.4434 76.582 16.4434ZM76.6524 14.541C78.6252 14.541 80.0346 15.9783 80.0346 17.7819C80.0346 19.5335 78.8253 20.3658 78.4107 20.5997L78.3369 20.6396C78.2962 20.6607 78.2732 20.6708 78.2732 20.6708L80.3867 24.4051H78.1318L76.2299 20.9527H74.3976V24.4051H72.2839V14.541H76.6524ZM51.4557 14.5408V18.485H55.3371V14.5408H57.4503V24.401H55.3371V20.3861H51.4557V24.401H49.3511V14.5408H51.4557ZM90.0109 14.5408V16.4425H85.178V18.485H89.7098V20.3867H85.178V22.4993H90.0109V24.401H83.0648V14.5408H90.0109ZM92.8584 14.4196C93.4669 14.4196 93.9305 14.893 93.9305 15.487C93.9305 16.0907 93.4572 16.5543 92.8584 16.5543C92.2645 16.5543 91.7863 16.0955 91.7863 15.4919C91.7863 14.8976 92.2595 14.4196 92.8584 14.4196ZM92.8584 14.5935C92.3464 14.5935 91.9793 14.9654 91.9793 15.4919C91.9793 16.0231 92.3659 16.3803 92.8584 16.3803C93.3559 16.3803 93.7374 16.0135 93.7374 15.487C93.7374 14.9606 93.3703 14.5935 92.8584 14.5935ZM92.8632 14.946C93.1094 14.946 93.269 15.0475 93.269 15.2649V15.2697C93.269 15.429 93.1771 15.5159 93.0516 15.5545L93.3318 16.0038H93.0904L92.8343 15.5932H92.7231V16.0038H92.4915V14.946H92.8632ZM92.8584 15.1248H92.7231V15.4339H92.8584C92.979 15.4339 93.042 15.3807 93.042 15.2793V15.2745C93.042 15.1635 92.9742 15.1248 92.8584 15.1248Z" fill="white"/>
</svg>
