<svg width="60" height="24" viewBox="0 0 60 24" fill="none" xmlns="http://www.w3.org/2000/svg">
<path fill-rule="evenodd" clip-rule="evenodd" d="M58.6001 1.80024C59.2629 2.6839 59.0838 3.9375 58.2001 4.60024L53.4001 8.20024C51.9779 9.26691 50.0223 9.26691 48.6001 8.20024L45.0001 5.50024L41.4001 8.20024C39.9779 9.26691 38.0223 9.26691 36.6001 8.20024L33.0001 5.50024L29.4001 8.20024C27.9779 9.26691 26.0223 9.26691 24.6001 8.20024L21.0001 5.50024L17.4001 8.20024C15.9779 9.26691 14.0223 9.26691 12.6001 8.20024L9.00012 5.50024L4.20012 9.10024C3.31646 9.76298 2.06286 9.5839 1.40012 8.70024C0.737376 7.81658 0.916462 6.56298 1.80012 5.90024L6.60012 2.30024C8.02234 1.23357 9.9779 1.23357 11.4001 2.30024L15.0001 5.00024L18.6001 2.30024C20.0223 1.23357 21.9779 1.23357 23.4001 2.30024L27.0001 5.00024L30.6001 2.30024C32.0223 1.23357 33.9779 1.23357 35.4001 2.30024L39.0001 5.00024L42.6001 2.30024C44.0223 1.23357 45.9779 1.23357 47.4001 2.30024L51.0001 5.00024L55.8001 1.40024C56.6838 0.737498 57.9374 0.916584 58.6001 1.80024Z" fill="url(#paint0_linear)"/>
<path fill-rule="evenodd" clip-rule="evenodd" d="M58.6001 14.8002C59.2629 15.6839 59.0838 16.9375 58.2001 17.6002L53.4001 21.2002C51.9779 22.2669 50.0223 22.2669 48.6001 21.2002L45.0001 18.5002L41.4001 21.2002C39.9779 22.2669 38.0223 22.2669 36.6001 21.2002L33.0001 18.5002L29.4001 21.2002C27.9779 22.2669 26.0223 22.2669 24.6001 21.2002L21.0001 18.5002L17.4001 21.2002C15.9779 22.2669 14.0223 22.2669 12.6001 21.2002L9.00012 18.5002L4.20012 22.1002C3.31646 22.763 2.06286 22.5839 1.40012 21.7002C0.737376 20.8166 0.916462 19.563 1.80012 18.9002L6.60012 15.3002C8.02234 14.2336 9.9779 14.2336 11.4001 15.3002L15.0001 18.0002L18.6001 15.3002C20.0223 14.2336 21.9779 14.2336 23.4001 15.3002L27.0001 18.0002L30.6001 15.3002C32.0223 14.2336 33.9779 14.2336 35.4001 15.3002L39.0001 18.0002L42.6001 15.3002C44.0223 14.2336 45.9779 14.2336 47.4001 15.3002L51.0001 18.0002L55.8001 14.4002C56.6838 13.7375 57.9374 13.9166 58.6001 14.8002Z" fill="url(#paint1_linear)"/>
<defs>
<linearGradient id="paint0_linear" x1="0.500122" y1="8.00022" x2="51.5001" y2="8.00023" gradientUnits="userSpaceOnUse">
<stop stop-color="#F09A99"/>
<stop offset="0.5" stop-color="#F6CDB8"/>
<stop offset="1" stop-color="#FDF5EB"/>
</linearGradient>
<linearGradient id="paint1_linear" x1="0.500122" y1="21.0002" x2="51.5001" y2="21.0002" gradientUnits="userSpaceOnUse">
<stop stop-color="#F09A99"/>
<stop offset="0.5" stop-color="#F6CDB8"/>
<stop offset="1" stop-color="#FDF5EB"/>
</linearGradient>
</defs>
</svg>
