<svg width="24" height="24" viewBox="0 0 24 24" fill="none" xmlns="http://www.w3.org/2000/svg">
<path d="M12.9524 5.80952C12.9524 5.28354 12.526 4.85714 12 4.85714C11.474 4.85714 11.0476 5.28354 11.0476 5.80952V12C11.0476 12.2526 11.148 12.4948 11.3266 12.6734L14.6599 16.0068C15.0318 16.3787 15.6348 16.3787 16.0068 16.0068C16.3787 15.6348 16.3787 15.0318 16.0068 14.6599L12.9524 11.6055V5.80952Z" fill="#5E5658"/>
<path fill-rule="evenodd" clip-rule="evenodd" d="M22 12C22 17.5228 17.5228 22 12 22C6.47715 22 2 17.5228 2 12C2 6.47715 6.47715 2 12 2C17.5228 2 22 6.47715 22 12ZM20.0952 12C20.0952 16.4709 16.4709 20.0952 12 20.0952C7.52912 20.0952 3.90476 16.4709 3.90476 12C3.90476 7.52912 7.52912 3.90476 12 3.90476C16.4709 3.90476 20.0952 7.52912 20.0952 12Z" fill="#5E5658"/>
</svg>
