<svg width="24" height="24" viewBox="0 0 24 24" fill="none" xmlns="http://www.w3.org/2000/svg">
<path d="M6.2328 4.31955C5.85699 3.91484 5.22426 3.89141 4.81955 4.26721C4.41484 4.64301 4.39141 5.27574 4.76721 5.68046L10.5868 11.9477L4.31955 17.7672C3.91484 18.143 3.89141 18.7757 4.26721 19.1805C4.64301 19.5852 5.27574 19.6086 5.68046 19.2328L11.9477 13.4132L17.7672 19.6805C18.143 20.0852 18.7757 20.1086 19.1805 19.7328C19.5852 19.357 19.6086 18.7243 19.2328 18.3196L13.4132 12.0523L19.6805 6.2328C20.0852 5.85699 20.1086 5.22426 19.7328 4.81955C19.357 4.41484 18.7243 4.39141 18.3196 4.76721L12.0523 10.5868L6.2328 4.31955Z" fill="#5E5658"/>
</svg>
