<svg width="24" height="24" viewBox="0 0 24 24" fill="none" xmlns="http://www.w3.org/2000/svg">
<path fill-rule="evenodd" clip-rule="evenodd" d="M15 6.75C15 8.40685 13.6569 9.75 12 9.75C10.3431 9.75 9 8.40685 9 6.75C9 5.09315 10.3431 3.75 12 3.75C13.6569 3.75 15 5.09315 15 6.75ZM17 6.75C17 9.51142 14.7614 11.75 12 11.75C9.23858 11.75 7 9.51142 7 6.75C7 3.98858 9.23858 1.75 12 1.75C14.7614 1.75 17 3.98858 17 6.75ZM5 18.75C5 17.0931 6.34315 15.75 8 15.75H16C17.6569 15.75 19 17.0931 19 18.75V21.25C19 21.8023 19.4477 22.25 20 22.25C20.5523 22.25 21 21.8023 21 21.25V18.75C21 15.9886 18.7614 13.75 16 13.75H8C5.23858 13.75 3 15.9886 3 18.75V21.25C3 21.8023 3.44772 22.25 4 22.25C4.55228 22.25 5 21.8023 5 21.25V18.75Z" fill="#BFBCC3"/>
</svg>
