<svg width="24" height="24" viewBox="0 0 24 24" fill="none" xmlns="http://www.w3.org/2000/svg">
<path fill-rule="evenodd" clip-rule="evenodd" d="M15.2674 17.0213C13.8602 18.2533 12.0173 19 10 19C5.58172 19 2 15.4183 2 11C2 6.58172 5.58172 3 10 3C14.4183 3 18 6.58172 18 11C18 12.7011 17.4691 14.2782 16.5639 15.5746C16.651 15.6198 16.7328 15.6785 16.8061 15.7505L20.8916 19.7667C21.2855 20.1538 21.2855 20.7815 20.8916 21.1687C20.4978 21.5559 19.8592 21.5559 19.4653 21.1687L15.3798 17.1526C15.3379 17.1113 15.3004 17.0674 15.2674 17.0213ZM16 11C16 14.3137 13.3137 17 10 17C6.68629 17 4 14.3137 4 11C4 7.68629 6.68629 5 10 5C13.3137 5 16 7.68629 16 11Z" fill="white"/>
</svg>
