<svg width="24" height="24" viewBox="0 0 24 24" fill="none" xmlns="http://www.w3.org/2000/svg">
<path fill-rule="evenodd" clip-rule="evenodd" d="M8 1C8.55228 1 9 1.44772 9 2V4H15V2C15 1.44772 15.4477 1 16 1C16.5523 1 17 1.44772 17 2V4H19C20.6569 4 22 5.34315 22 7V20C22 21.6569 20.6569 23 19 23H5C3.34315 23 2 21.6569 2 20V7C2 5.34315 3.34315 4 5 4H7V2C7 1.44772 7.44772 1 8 1ZM15 6V7C15 7.55228 15.4477 8 16 8C16.5523 8 17 7.55228 17 7V6H19C19.5523 6 20 6.44771 20 7V9H4V7C4 6.44772 4.44772 6 5 6H7V7C7 7.55228 7.44772 8 8 8C8.55228 8 9 7.55228 9 7V6H15ZM20 11V20C20 20.5523 19.5523 21 19 21H5C4.44772 21 4 20.5523 4 20V11H20Z" fill="#BFBCC3"/>
</svg>
