<svg width="24" height="24" viewBox="0 0 24 24" fill="none" xmlns="http://www.w3.org/2000/svg">
<path fill-rule="evenodd" clip-rule="evenodd" d="M12 17C12 18.6569 10.6569 20 9 20C7.34315 20 6 18.6569 6 17C6 15.3431 7.34315 14 9 14C10.6569 14 12 15.3431 12 17ZM10 17C10 17.5523 9.55228 18 9 18C8.44772 18 8 17.5523 8 17C8 16.4477 8.44772 16 9 16C9.55228 16 10 16.4477 10 17Z" fill="white"/>
<path fill-rule="evenodd" clip-rule="evenodd" d="M9 2C9 1.44772 8.55228 1 8 1C7.44772 1 7 1.44772 7 2V4H5C3.34315 4 2 5.34315 2 7V20C2 21.6569 3.34315 23 5 23H19C20.6569 23 22 21.6569 22 20V7C22 5.34315 20.6569 4 19 4H17V2C17 1.44772 16.5523 1 16 1C15.4477 1 15 1.44772 15 2V4H9V2ZM15 7V6H9V7C9 7.55228 8.55228 8 8 8C7.44772 8 7 7.55228 7 7V6H5C4.44772 6 4 6.44772 4 7V9H20V7C20 6.44771 19.5523 6 19 6H17V7C17 7.55228 16.5523 8 16 8C15.4477 8 15 7.55228 15 7ZM20 20V11H4V20C4 20.5523 4.44772 21 5 21H19C19.5523 21 20 20.5523 20 20Z" fill="white"/>
</svg>
