<svg width="24" height="24" viewBox="0 0 24 24" fill="none" xmlns="http://www.w3.org/2000/svg">
<path fill-rule="evenodd" clip-rule="evenodd" d="M5 7H19C19.5523 7 20 7.44771 20 8C20 8.55228 19.5523 9 19 9H5C4.44772 9 4 8.55229 4 8C4 7.44772 4.44772 7 5 7ZM2 8C2 6.34315 3.34315 5 5 5H19C20.6569 5 22 6.34315 22 8C22 9.65685 20.6569 11 19 11H5C3.34315 11 2 9.65685 2 8ZM5 15H19C19.5523 15 20 15.4477 20 16C20 16.5523 19.5523 17 19 17H5C4.44772 17 4 16.5523 4 16C4 15.4477 4.44772 15 5 15ZM2 16C2 14.3431 3.34315 13 5 13H19C20.6569 13 22 14.3431 22 16C22 17.6569 20.6569 19 19 19H5C3.34315 19 2 17.6569 2 16Z" fill="#6C62C0"/>
</svg>
