<svg width="24" height="24" viewBox="0 0 24 24" fill="none" xmlns="http://www.w3.org/2000/svg">
<path fill-rule="evenodd" clip-rule="evenodd" d="M15.8571 11C15.8571 13.1302 14.1302 14.8571 12 14.8571C9.86976 14.8571 8.14286 13.1302 8.14286 11C8.14286 8.86976 9.86976 7.14286 12 7.14286C14.1302 7.14286 15.8571 8.86976 15.8571 11ZM14.1429 11C14.1429 12.1835 13.1835 13.1429 12 13.1429C10.8165 13.1429 9.85714 12.1835 9.85714 11C9.85714 9.81653 10.8165 8.85714 12 8.85714C13.1835 8.85714 14.1429 9.81653 14.1429 11Z" fill="#5E5658"/>
<path fill-rule="evenodd" clip-rule="evenodd" d="M21 11C21 17.6848 12 23 12 23C12 23 3 17.6848 3 11C3 6.02944 7.02944 2 12 2C16.9706 2 21 6.02944 21 11ZM19.2857 11C19.2857 13.6067 17.4888 16.177 15.3115 18.2714C14.2624 19.2806 13.2063 20.1011 12.4098 20.6701C12.2633 20.7748 12.1261 20.8705 12 20.957C11.8739 20.8705 11.7367 20.7748 11.5902 20.6701C10.7937 20.1011 9.73762 19.2806 8.68845 18.2714C6.51121 16.177 4.71429 13.6067 4.71429 11C4.71429 6.97621 7.97621 3.71429 12 3.71429C16.0238 3.71429 19.2857 6.97621 19.2857 11Z" fill="#5E5658"/>
</svg>
