<svg width="24" height="24" viewBox="0 0 24 24" fill="none" xmlns="http://www.w3.org/2000/svg">
<path fill-rule="evenodd" clip-rule="evenodd" d="M4.70936 9.25275C4.70936 5.24717 7.97349 2 12 2C16.0265 2 19.2906 5.24717 19.2906 9.25275V14.9088L21.0709 15.9714C21.4115 16.1747 21.5739 16.5791 21.4679 16.9599C21.3618 17.3408 21.0134 17.6044 20.6162 17.6044H3.38379C2.98658 17.6044 2.63817 17.3408 2.53214 16.9599C2.42611 16.5791 2.58852 16.1747 2.92912 15.9714L4.70936 14.9088V9.25275ZM6.47679 9.25275C6.47679 6.21822 8.94962 3.75824 12 3.75824C15.0504 3.75824 17.5232 6.21822 17.5232 9.25275V15.4066C17.5232 15.5635 17.5653 15.7146 17.6416 15.8462H6.35839C6.43472 15.7146 6.47679 15.5635 6.47679 15.4066V9.25275Z" fill="#5E5658"/>
<path d="M10.9837 19.0989C10.5933 18.8076 10.0394 18.8863 9.74653 19.2747C9.45369 19.6631 9.53282 20.2142 9.92327 20.5055L11.6907 21.8242C12.0049 22.0586 12.4369 22.0586 12.7512 21.8242L14.5186 20.5055C14.909 20.2142 14.9882 19.6631 14.6953 19.2747C14.4025 18.8863 13.8486 18.8076 13.4581 19.0989L12.2209 20.022L10.9837 19.0989Z" fill="#5E5658"/>
</svg>
