<svg width="24" height="24" viewBox="0 0 24 24" fill="none" xmlns="http://www.w3.org/2000/svg">
<path fill-rule="evenodd" clip-rule="evenodd" d="M9.5 3.5C7.19881 3.5 5.33333 5.31218 5.33333 7.54762C5.33333 9.78306 7.19881 11.5952 9.5 11.5952C11.8012 11.5952 13.6667 9.78306 13.6667 7.54762C13.6667 5.31218 11.8012 3.5 9.5 3.5ZM7 7.54762C7 6.20636 8.11929 5.11905 9.5 5.11905C10.8807 5.11905 12 6.20636 12 7.54762C12 8.88888 10.8807 9.97619 9.5 9.97619C8.11929 9.97619 7 8.88888 7 7.54762Z" fill="#5E5658"/>
<path d="M15.541 3.62753C15.0953 3.51609 14.641 3.77675 14.5263 4.20972C14.4116 4.6427 14.6799 5.08404 15.1256 5.19548C16.2041 5.46512 17 6.41708 17 7.54759C17 8.67809 16.2041 9.63005 15.1256 9.89969C14.6799 10.0111 14.4116 10.4525 14.5263 10.8854C14.641 11.3184 15.0953 11.5791 15.541 11.4676C17.338 11.0184 18.6667 9.43472 18.6667 7.54759C18.6667 5.66045 17.338 4.07682 15.541 3.62753Z" fill="#5E5658"/>
<path d="M6.16667 14.8333C4.78595 14.8333 3.66667 15.9206 3.66667 17.2619V19.6905C3.66667 20.1376 3.29357 20.5 2.83333 20.5C2.3731 20.5 2 20.1376 2 19.6905V17.2619C2 15.0265 3.86548 13.2143 6.16667 13.2143H12.8333C15.1345 13.2143 17 15.0265 17 17.2619V19.2546C17 19.7017 16.6269 20.0641 16.1667 20.0641C15.7064 20.0641 15.3333 19.7017 15.3333 19.2546V17.2619C15.3333 15.9206 14.214 14.8333 12.8333 14.8333H6.16667Z" fill="#5E5658"/>
<path d="M17.4167 13.2143C16.9564 13.2143 16.5833 13.5767 16.5833 14.0238C16.5833 14.4709 16.9564 14.8333 17.4167 14.8333H17.8333C19.214 14.8333 20.3333 15.9206 20.3333 17.2619V19.2546C20.3333 19.7017 20.7064 20.0641 21.1667 20.0641C21.6269 20.0641 22 19.7017 22 19.2546V17.2619C22 15.0265 20.1345 13.2143 17.8333 13.2143H17.4167Z" fill="#5E5658"/>
</svg>
