<svg width="24" height="24" viewBox="0 0 24 24" fill="none" xmlns="http://www.w3.org/2000/svg">
<mask id="path-1-inside-1" fill="white">
<path fill-rule="evenodd" clip-rule="evenodd" d="M12.1706 23.5C18.5219 23.5 23.6706 18.3513 23.6706 12C23.6706 5.64873 18.5219 0.5 12.1706 0.5C5.81932 0.5 0.670591 5.64873 0.670591 12C0.670591 13.884 1.12364 15.6622 1.92673 17.2316L0.303046 22.1026C0.0424598 22.8844 0.786199 23.6281 1.56796 23.3675L6.19251 21.826C7.93451 22.8881 9.98109 23.5 12.1706 23.5Z"/>
</mask>
<path d="M1.92673 17.2316L3.8241 17.864L4.08954 17.0677L3.70716 16.3205L1.92673 17.2316ZM0.303046 22.1026L2.20041 22.7351H2.20041L0.303046 22.1026ZM1.56796 23.3675L2.20041 25.2649L1.56796 23.3675ZM6.19251 21.826L7.23365 20.1184L6.44089 19.635L5.56005 19.9287L6.19251 21.826ZM21.6706 12C21.6706 17.2467 17.4173 21.5 12.1706 21.5V25.5C19.6264 25.5 25.6706 19.4558 25.6706 12H21.6706ZM12.1706 2.5C17.4173 2.5 21.6706 6.75329 21.6706 12H25.6706C25.6706 4.54416 19.6264 -1.5 12.1706 -1.5V2.5ZM2.67059 12C2.67059 6.75329 6.92389 2.5 12.1706 2.5V-1.5C4.71475 -1.5 -1.32941 4.54416 -1.32941 12H2.67059ZM3.70716 16.3205C3.04503 15.0266 2.67059 13.5599 2.67059 12H-1.32941C-1.32941 14.2081 -0.79775 16.2978 0.146307 18.1427L3.70716 16.3205ZM2.20041 22.7351L3.8241 17.864L0.0293646 16.5991L-1.59432 21.4702L2.20041 22.7351ZM0.935502 21.4702C1.71725 21.2096 2.461 21.9533 2.20041 22.7351L-1.59432 21.4702C-2.37608 23.8155 -0.144855 26.0467 2.20041 25.2649L0.935502 21.4702ZM5.56005 19.9287L0.935502 21.4702L2.20041 25.2649L6.82496 23.7234L5.56005 19.9287ZM12.1706 21.5C10.3587 21.5 8.67095 20.9947 7.23365 20.1184L5.15137 23.5337C7.19807 24.7815 9.60348 25.5 12.1706 25.5V21.5Z" fill="#151719" mask="url(#path-1-inside-1)"/>
</svg>
