<svg width="24" height="24" viewBox="0 0 24 24" fill="none" xmlns="http://www.w3.org/2000/svg">
<path d="M21.79 23L16.18 23L16.18 14.48L19.04 14.48L19.47 11.16L16.18 11.16L16.18 9.04C16.18 8.08 16.45 7.42 17.82 7.42L19.58 7.42L19.58 4.45C18.73 4.36 17.87 4.32 17.02 4.32C14.48 4.32 12.75 5.87 12.75 8.71L12.75 11.16L9.88 11.16L9.88 14.48L12.75 14.48L12.75 23L2.21 23C1.54 23 1 22.46 1 21.79L1 2.22C1 1.54 1.54 1 2.21 1L21.78 1C22.45 1 22.99 1.54 22.99 2.21L22.99 21.79C23 22.46 22.46 23 21.79 23Z" fill="white"/>
</svg>
