<svg width="24" height="24" viewBox="0 0 24 24" fill="none" xmlns="http://www.w3.org/2000/svg">
<path d="M12 0C15.26 0 15.67 0.01 16.95 0.07C18.23 0.13 19.1 0.33 19.86 0.63C20.66 0.93 21.38 1.4 21.98 2.01C22.59 2.61 23.06 3.33 23.37 4.14C23.67 4.9 23.87 5.78 23.93 7.05C23.99 8.33 24 8.74 24 12C24 15.26 23.98 15.67 23.93 16.95C23.87 18.22 23.67 19.1 23.37 19.86C23.06 20.65 22.65 21.32 21.98 21.98C21.38 22.59 20.66 23.06 19.86 23.37C19.1 23.67 18.23 23.87 16.95 23.93C15.67 23.99 15.26 24 12 24C8.74 24 8.33 23.99 7.05 23.93C5.77 23.87 4.9 23.67 4.14 23.37C3.34 23.07 2.61 22.6 2.02 21.98C1.41 21.38 0.94 20.66 0.63 19.86C0.33 19.1 0.13 18.22 0.07 16.95C0.01 15.67 0 15.26 0 12C0 8.74 0.01 8.33 0.07 7.05C0.13 5.77 0.33 4.9 0.63 4.14C0.93 3.34 1.4 2.61 2.02 2.02C2.62 1.41 3.34 0.94 4.14 0.64C4.9 0.34 5.78 0.14 7.05 0.08C8.33 0.01 8.74 0 12 0ZM12.09 2.17C8.91 2.17 8.53 2.18 7.28 2.24C6.12 2.29 5.49 2.48 5.08 2.65C4.52 2.86 4.12 3.12 3.7 3.53C3.29 3.95 3.03 4.34 2.82 4.9C2.65 5.32 2.46 5.95 2.41 7.11C2.35 8.36 2.34 8.74 2.34 11.92C2.34 15.1 2.35 15.47 2.41 16.72C2.46 17.88 2.66 18.51 2.82 18.93C3.01 19.44 3.31 19.91 3.71 20.29C4.13 20.71 4.52 20.96 5.08 21.18C5.5 21.35 6.13 21.54 7.29 21.59C8.54 21.65 8.92 21.66 12.1 21.66C15.27 21.66 15.65 21.65 16.9 21.59C18.06 21.54 18.69 21.34 19.11 21.18C19.63 20.99 20.09 20.69 20.47 20.29C20.87 19.91 21.17 19.44 21.36 18.93C21.52 18.51 21.72 17.88 21.77 16.72C21.83 15.47 21.84 15.09 21.84 11.91C21.84 8.73 21.82 8.36 21.77 7.11C21.72 5.95 21.52 5.32 21.36 4.9C21.14 4.35 20.89 3.95 20.47 3.54C20.05 3.12 19.66 2.87 19.11 2.65C18.69 2.48 18.06 2.29 16.9 2.24C15.63 2.17 15.26 2.16 12.09 2.17ZM12.18 15.74C13.21 15.74 14.2 15.33 14.93 14.6C15.66 13.87 16.07 12.88 16.07 11.85C16.07 9.7 14.33 7.96 12.18 7.96C10.03 7.96 8.29 9.7 8.29 11.85C8.29 13.99 10.03 15.74 12.18 15.74ZM12.18 5.85C15.49 5.85 18.17 8.53 18.17 11.84C18.17 15.15 15.49 17.83 12.18 17.83C8.87 17.83 6.19 15.15 6.19 11.84C6.19 8.53 8.87 5.85 12.18 5.85ZM4.07 5.67C4.09 4.86 4.75 4.21 5.57 4.21C6.39 4.21 7.05 4.86 7.07 5.67C7.08 6.21 6.8 6.72 6.33 7C5.86 7.28 5.28 7.28 4.81 7C4.34 6.72 4.05 6.21 4.07 5.67Z" fill="white"/>
</svg>
