<svg width="56" height="56" viewBox="0 0 56 56" fill="none" xmlns="http://www.w3.org/2000/svg">
<path d="M28 56C12.536 56 0 43.464 0 28C0 12.536 12.536 0 28 0C43.464 0 56 12.536 56 28C56 43.464 43.464 56 28 56ZM28 1.47656C13.3515 1.47656 1.47656 13.3515 1.47656 28C1.47656 42.6485 13.3515 54.5234 28 54.5234C42.6485 54.5234 54.5234 42.6485 54.5234 28C54.5234 13.3515 42.6485 1.47656 28 1.47656Z" fill="#222222"/>
<path d="M28.0765 6.69878C28.0765 8.02052 28.1316 9.03695 28.0765 10.4506C28.0658 10.7416 28.0518 10.9226 27.9387 11.0349C27.7747 11.1999 27.3348 11.1729 26.8391 11.1729C25.4417 11.1729 24.7165 11.1381 23.1564 11.1381C22.0138 11.1381 20.7266 11.1729 19.4751 11.1729C18.948 11.1729 18.5696 11.1663 18.4424 10.9667C18.3063 10.7524 18.3745 9.89209 18.3745 9.5556V5.90838C18.3745 5.62822 18.3454 5.33159 18.4078 5.21938C18.4498 5.1462 18.6365 5.06625 18.7527 5.04815H18.8208C19.1786 4.97596 19.7648 4.97891 19.9225 5.21938C20.0411 5.40181 19.9915 5.86945 19.9915 6.25226V8.45502C19.9915 8.79977 19.9311 9.34002 20.0257 9.48659C20.165 9.70452 21.3475 9.65256 21.8488 9.62473C21.9622 9.61718 22.0311 9.61078 22.1248 9.59011C22.2241 9.5673 22.3233 9.56419 22.3652 9.52115C22.5236 9.3561 22.4516 8.91931 22.4343 8.48941C22.3934 7.52697 22.4343 7.15477 22.4343 6.2178C22.4343 5.80169 22.3923 5.36397 22.5377 5.18607C22.7114 4.97033 23.6426 4.91323 23.8787 5.15041C24.1753 5.45032 23.993 6.74067 23.9822 7.28541C23.9782 7.53435 23.9822 8.03102 23.9822 8.4193C23.9822 8.81606 23.9228 9.3164 24.0514 9.48659C24.0933 9.54275 24.2043 9.56621 24.2918 9.59011C24.6184 9.67652 25.4289 9.64852 25.8754 9.62473C26.1136 9.61171 26.3183 9.60187 26.3905 9.52115C26.521 9.37568 26.4597 8.9442 26.4597 8.45502C26.4597 7.5892 26.4111 6.61582 26.4597 5.66699C26.4682 5.49664 26.4746 5.29495 26.4793 5.18749C26.4839 5.08484 26.5696 5.05887 26.661 5.0476C26.8419 5.02491 26.9791 5.01036 27.32 5.01353C27.4925 5.01555 27.6378 5.00691 27.7671 5.04815C27.876 5.08255 28.0097 5.15807 28.0433 5.21938C28.1608 5.44463 28.0765 6.24586 28.0765 6.69878ZM12.6965 26.4173C13.1825 26.4173 13.5018 26.2881 13.6256 26.6924C13.7132 26.9789 13.6957 27.6894 13.5223 27.862C13.2634 28.122 12.1262 27.9999 11.5612 27.9999H7.36362C6.91294 27.9999 5.63347 28.0932 5.4372 27.862C5.33362 27.7402 5.38634 27.0833 5.38339 26.7316C5.3829 26.6818 5.38634 26.5995 5.43622 26.5381C5.48396 26.4788 5.52306 26.4543 5.59158 26.4385C5.72125 26.4082 6.031 26.4226 6.26172 26.4173C6.47293 26.412 6.70595 26.4325 6.91622 26.3483C6.94204 26.3375 7.05857 26.273 7.05404 26.2792C7.13694 26.1597 7.11457 25.544 7.12322 25.2121C7.17697 22.9255 7.12322 20.7714 7.12322 18.3993C7.12322 18.0456 7.16932 17.4657 7.05404 17.3334C6.84065 17.0863 5.75942 17.3751 5.506 17.1248C5.39602 17.0194 5.39947 16.8005 5.40242 16.5073C5.40351 16.3242 5.37021 16.1256 5.4372 15.991C5.44344 15.9748 5.46192 15.9446 5.46815 15.9315C5.47362 15.9166 5.49424 15.8992 5.506 15.8874C5.69374 15.6741 6.67161 15.7493 7.22564 15.7493H12.7998C12.8227 15.7493 12.8451 15.7503 12.8691 15.7493C12.9996 15.7429 13.4278 15.7136 13.5156 15.8309C13.5592 15.8889 13.575 15.9091 13.5913 15.9565C13.6992 16.2669 13.6968 17.0582 13.4535 17.1951C13.3013 17.2803 12.9917 17.2254 12.7309 17.2296C12.4947 17.2328 12.1792 17.194 12.0431 17.2975C11.8168 17.47 11.9051 18.4898 11.9051 19.1907C11.9051 21.221 11.8651 23.2747 11.9397 25.1431C11.9538 25.4923 11.872 26.0993 12.0087 26.2792C12.1304 26.44 12.4098 26.4173 12.6965 26.4173ZM10.2872 17.3334C10.1329 17.176 9.17727 17.2533 8.99801 17.2587C8.90761 17.2593 8.80764 17.2705 8.77242 17.3026C8.7302 17.3415 8.70204 17.3908 8.68438 17.4845C8.66682 17.6986 8.67125 18.0222 8.67125 18.296V21.8061C8.67125 23.1864 8.66573 24.0057 8.70472 25.2811C8.72178 25.792 8.67344 26.2318 8.80808 26.3483C8.97077 26.4874 10.1179 26.4788 10.2872 26.2792C10.4145 26.1306 10.3918 25.6627 10.3918 25.2465V19.5347C10.3918 19.0798 10.5112 17.5566 10.2872 17.3334ZM9.46094 11.4297C7.61857 11.4297 6.12501 9.93612 6.12501 8.09375C6.12501 6.25138 7.61857 4.75781 9.46094 4.75781C11.3033 4.75781 12.7969 6.25138 12.7969 8.09375C12.7969 9.93612 11.3033 11.4297 9.46094 11.4297ZM18.4078 21.1519C18.4078 20.4965 18.3398 19.526 18.6639 19.1334C18.8344 18.9271 19.1932 18.99 20.5068 18.9837C20.9045 18.982 21.4407 18.9871 21.8939 18.99C22.0567 18.9909 22.2845 18.9815 22.3652 18.9149C22.5161 18.792 22.555 18.0382 22.5032 17.6427C22.4516 17.2569 22.3802 17.2524 21.9522 17.2296C21.518 17.2061 20.8603 17.2296 20.4386 17.2296C19.7435 17.2296 18.7637 17.3539 18.5114 17.1248C18.3863 17.013 18.3961 16.7819 18.4078 16.4717C18.4144 16.3274 18.3809 16.1624 18.4078 16.0588C18.4108 16.0493 18.5416 15.8432 18.5802 15.8184C18.7452 15.7084 19.2001 15.7493 19.6464 15.7493H26.3905C26.7895 15.7493 27.1486 15.6977 27.5269 15.7148C27.5692 15.7171 27.7564 15.6741 27.8706 15.7493C28.1251 15.9177 28.1897 16.9557 27.9052 17.1607C27.6994 17.3073 27.2454 17.2296 26.976 17.2296C26.0853 17.2296 25.4871 17.2007 24.5329 17.2296C24.1236 17.2415 24.0016 17.2351 23.9478 17.608C23.9015 17.9197 23.907 18.7369 24.0514 18.8814C24.2561 19.0862 25.5497 18.9837 25.9789 18.9837C26.2827 18.9837 26.6256 18.9901 26.976 18.9837C27.1268 18.9815 27.3455 18.9773 27.4584 18.9773C28.0773 18.9784 28.0452 19.2642 28.0452 20.0446C28.0452 22.2862 28.0765 24.561 28.0765 26.7949C28.0765 27.2424 28.0839 27.7757 28.0016 27.8779C27.932 27.9644 27.7623 27.9979 27.5654 28.009V28.0093L27.5594 28.0095C27.4816 28.0136 27.4 28.0142 27.3184 28.0132L27.2526 28.0143C26.9372 28.0143 26.8689 28.0021 26.762 27.9542C26.7004 27.9267 26.6527 27.8917 26.6294 27.8141C26.6068 27.739 26.5943 27.6939 26.5843 27.5588C26.5721 27.394 26.5674 26.6102 26.5638 26.1843C26.5493 24.4874 26.5737 23.192 26.5582 21.3848C26.556 21.1403 26.5685 20.9101 26.5168 20.7132C26.456 20.4818 26.2115 20.4568 25.9975 20.4541C25.9699 20.4551 25.9411 20.4557 25.9104 20.4555C25.677 20.4539 25.483 20.4679 25.3917 20.5628C25.2451 20.7154 25.2898 22.0414 25.2898 22.3906C25.2898 23.4397 25.3183 25.4643 25.3183 26.5586C25.3183 27.1503 25.3418 27.7224 25.2568 27.8662C25.1995 27.9627 25.0488 27.9689 24.5325 27.9658L24.5324 27.9642C24.0759 27.9649 24.009 27.9727 23.9261 27.8568C23.8309 27.7244 23.8205 27.3731 23.8211 27.0043C23.8245 25.1302 23.8269 23.4295 23.8149 21.4652C23.8128 21.1268 23.8502 20.7212 23.776 20.604C23.685 20.4629 22.7952 20.4224 22.6882 20.5941C22.6081 20.7373 22.6085 20.921 22.6055 22.287C22.6019 23.9535 22.587 25.3101 22.6055 27.0373C22.61 27.3598 22.6382 27.6625 22.5066 27.8363C22.3882 27.9922 22.112 27.9668 21.8142 27.9657C21.464 27.9631 21.3059 27.9547 21.2034 27.7997C21.102 27.6464 21.1385 27.3424 21.1385 26.9277C21.1385 26.0043 21.1285 25.099 21.1305 24.1742C21.1321 23.4965 21.1266 22.9276 21.1266 22.287C21.1266 21.1223 21.1438 20.7769 21.0295 20.5835C20.9565 20.4602 20.8183 20.4486 20.2318 20.464C20.0061 20.4698 19.964 20.5322 19.9638 20.7125C19.9627 21.843 19.9649 23.166 19.9649 24.2839C19.9649 25.0849 19.9466 26.201 19.9649 27.0922C19.9677 27.3008 19.9724 27.5659 19.8958 27.7471C19.776 28.0306 19.1623 28.0863 18.7182 27.9657C18.6396 27.9439 18.4949 27.8996 18.4424 27.8277C18.3333 27.6746 18.3738 27.1939 18.3745 26.7612C18.3767 24.7951 18.4089 23.1839 18.4078 21.1519Z" fill="#222222"/>
</svg>
