<svg width="24" height="24" viewBox="0 0 24 24" fill="none" xmlns="http://www.w3.org/2000/svg">
<path fill-rule="evenodd" clip-rule="evenodd" d="M2 4.75C2 4.33579 2.33579 4 2.75 4H21.25C21.6642 4 22 4.33579 22 4.75C22 5.16421 21.6642 5.5 21.25 5.5H2.75C2.33579 5.5 2 5.16421 2 4.75ZM2 11.75C2 11.3358 2.33579 11 2.75 11H21.25C21.6642 11 22 11.3358 22 11.75C22 12.1642 21.6642 12.5 21.25 12.5H2.75C2.33579 12.5 2 12.1642 2 11.75ZM2.75 18C2.33579 18 2 18.3358 2 18.75C2 19.1642 2.33579 19.5 2.75 19.5H21.25C21.6642 19.5 22 19.1642 22 18.75C22 18.3358 21.6642 18 21.25 18H2.75Z" fill="#222222"/>
</svg>
