<svg width="24" height="24" viewBox="0 0 24 24" fill="none" xmlns="http://www.w3.org/2000/svg">
<path d="M5.55934 8.99866C5.8163 5.61978 8.6265 3 12.0151 3C15.3913 3 18.1965 5.60103 18.4596 8.9669C18.6845 11.8446 18.9232 14.8207 19 15.5C19.1579 16.8966 20 18 20 18H4C4 18 4.77511 17.0488 5 15.5C5.10824 14.7546 5.34395 11.831 5.55934 8.99866Z" stroke="#222222" stroke-width="1.5" stroke-miterlimit="10"/>
<path d="M11 2C11 1.44772 11.4477 1 12 1C12.5523 1 13 1.44772 13 2V3H11V2Z" stroke="#222222"/>
<path d="M10 20C10 20 10.6667 21 12 21C13.3333 21 14 20 14 20" stroke="#222222" stroke-width="1.5" stroke-linecap="round" stroke-linejoin="round"/>
</svg>
