<svg width="867" height="105" viewBox="0 0 867 105" fill="none" xmlns="http://www.w3.org/2000/svg">
<rect x="656.393" y="565.618" width="15.2622" height="600" transform="rotate(-145 656.393 565.618)" fill="#F6F6F6"/>
<rect x="631.604" y="548.26" width="15.2622" height="600" transform="rotate(-145 631.604 548.26)" fill="#F6F6F6"/>
<rect x="606.814" y="530.903" width="15.2622" height="600" transform="rotate(-145 606.814 530.903)" fill="#F6F6F6"/>
<rect x="582.025" y="513.545" width="15.2622" height="600" transform="rotate(-145 582.025 513.545)" fill="#F6F6F6"/>
<rect x="557.236" y="496.188" width="15.2622" height="600" transform="rotate(-145 557.236 496.188)" fill="#F6F6F6"/>
<rect x="532.446" y="478.83" width="15.2622" height="600" transform="rotate(-145 532.446 478.83)" fill="#F6F6F6"/>
<rect x="507.657" y="461.472" width="15.2622" height="600" transform="rotate(-145 507.657 461.472)" fill="#F6F6F6"/>
<rect x="482.868" y="444.114" width="15.2622" height="600" transform="rotate(-145 482.868 444.114)" fill="#F6F6F6"/>
<rect x="458.078" y="426.757" width="15.2622" height="600" transform="rotate(-145 458.078 426.757)" fill="#F6F6F6"/>
<rect x="433.289" y="409.399" width="15.2622" height="600" transform="rotate(-145 433.289 409.399)" fill="#F6F6F6"/>
<rect x="408.5" y="392.041" width="15.2622" height="600" transform="rotate(-145 408.5 392.041)" fill="#F6F6F6"/>
<rect x="383.71" y="374.684" width="15.2622" height="600" transform="rotate(-145 383.71 374.684)" fill="#F6F6F6"/>
<rect x="358.921" y="357.326" width="15.2622" height="600" transform="rotate(-145 358.921 357.326)" fill="#F6F6F6"/>
<rect x="334.132" y="339.968" width="15.2622" height="600" transform="rotate(-145 334.132 339.968)" fill="#F6F6F6"/>
<rect x="309.342" y="322.61" width="15.2622" height="600" transform="rotate(-145 309.342 322.61)" fill="#F6F6F6"/>
<rect x="284.553" y="305.253" width="15.2622" height="600" transform="rotate(-145 284.553 305.253)" fill="#F6F6F6"/>
<rect x="259.764" y="287.895" width="15.2622" height="600" transform="rotate(-145 259.764 287.895)" fill="#F6F6F6"/>
<rect x="234.974" y="270.537" width="15.2622" height="600" transform="rotate(-145 234.974 270.537)" fill="#F6F6F6"/>
<rect x="210.185" y="253.18" width="15.2622" height="600" transform="rotate(-145 210.185 253.18)" fill="#F6F6F6"/>
<rect x="185.396" y="235.822" width="15.2622" height="600" transform="rotate(-145 185.396 235.822)" fill="#F6F6F6"/>
<rect x="160.606" y="218.464" width="15.2622" height="600" transform="rotate(-145 160.606 218.464)" fill="#F6F6F6"/>
<rect x="135.817" y="201.107" width="15.2622" height="600" transform="rotate(-145 135.817 201.107)" fill="#F6F6F6"/>
<rect x="111.028" y="183.749" width="15.2622" height="600" transform="rotate(-145 111.028 183.749)" fill="#F6F6F6"/>
<rect x="86.2382" y="166.391" width="15.2622" height="600" transform="rotate(-145 86.2382 166.391)" fill="#F6F6F6"/>
<rect x="61.4488" y="149.034" width="15.2622" height="600" transform="rotate(-145 61.4488 149.034)" fill="#F6F6F6"/>
<rect x="36.6595" y="131.676" width="15.2622" height="600" transform="rotate(-145 36.6595 131.676)" fill="#F6F6F6"/>
<rect x="11.8701" y="114.318" width="15.2622" height="600" transform="rotate(-145 11.8701 114.318)" fill="#F6F6F6"/>
<rect x="-12.9192" y="96.9606" width="15.2622" height="600" transform="rotate(-145 -12.9192 96.9606)" fill="#F6F6F6"/>
<rect x="-37.7086" y="79.6029" width="15.2622" height="600" transform="rotate(-145 -37.7086 79.6029)" fill="#F6F6F6"/>
<rect x="-62.4979" y="62.2451" width="15.2622" height="600" transform="rotate(-145 -62.4979 62.2451)" fill="#F6F6F6"/>
</svg>
