<svg width="24" height="24" viewBox="0 0 24 24" fill="none" xmlns="http://www.w3.org/2000/svg">
<path fill-rule="evenodd" clip-rule="evenodd" d="M5.70711 4.29289C5.31658 3.90237 4.68342 3.90237 4.29289 4.29289C3.90237 4.68342 3.90237 5.31658 4.29289 5.70711L10.6569 12.0711L4.29292 18.4351C3.9024 18.8256 3.9024 19.4588 4.29292 19.8493C4.68345 20.2398 5.31661 20.2398 5.70714 19.8493L12.0711 13.4853L18.435 19.8492C18.8256 20.2398 19.4587 20.2398 19.8492 19.8492C20.2398 19.4587 20.2398 18.8256 19.8492 18.435L13.4853 12.0711L19.8493 5.70715C20.2398 5.31663 20.2398 4.68347 19.8493 4.29294C19.4587 3.90242 18.8256 3.90242 18.4351 4.29294L12.0711 10.6569L5.70711 4.29289Z" fill="#151719"/>
</svg>
