<svg width="350" height="242" viewBox="0 0 350 242" fill="none" xmlns="http://www.w3.org/2000/svg">
<g clip-path="url(#clip0)">
<path d="M218 144.321V54.5C218 24.9527 241.953 1 271.5 1C291.83 1 309.512 12.3157 318.565 29" stroke="#222222" stroke-width="2" stroke-linecap="round" stroke-linejoin="round"/>
<path d="M158 241V224.553C158 224.359 158.112 224.183 158.287 224.1L176.464 215.523C176.639 215.44 176.75 215.264 176.75 215.071V192.891C176.75 192.695 176.865 192.517 177.043 192.436L193.399 184.984C193.577 184.903 193.691 184.725 193.691 184.529V161.414C193.691 161.221 193.803 161.044 193.978 160.962L212.922 152.048C212.989 152.016 213.061 152 213.135 152H302.377M319 152L299.955 160.962C299.78 161.044 299.668 161.221 299.668 161.414V186.163C299.668 186.375 299.535 186.563 299.336 186.634L283.021 192.451C282.822 192.522 282.689 192.711 282.689 192.922V215.987C282.689 216.188 282.569 216.37 282.383 216.448L264.244 224.107C264.059 224.185 263.939 224.366 263.939 224.567V241L319 152Z" stroke="#222222" stroke-width="2" stroke-linecap="round" stroke-linejoin="round"/>
<path d="M205 184H282" stroke="#222222" stroke-width="2" stroke-linecap="round" stroke-linejoin="round"/>
<path d="M187 215H264" stroke="#222222" stroke-width="2" stroke-linecap="round" stroke-linejoin="round"/>
<path d="M2.44552 240C-14.6416 168.977 60.9009 93.0091 132.847 133.016C148.292 141.604 144.987 158.189 134.196 162.684C123.404 167.179 112.104 161.107 109.914 144.254C100.33 70.4737 195.603 24.0022 261 73.5722" stroke="#222222" stroke-width="2" stroke-linecap="round" stroke-linejoin="round"/>
<path d="M274 94C278.971 94 283 89.9706 283 85C283 80.0294 278.971 76 274 76C269.029 76 265 80.0294 265 85C265 89.9706 269.029 94 274 94Z" fill="#222222"/>
</g>
<defs>
<clipPath id="clip0">
<rect width="350" height="242" fill="white"/>
</clipPath>
</defs>
</svg>
