<svg width="24" height="24" viewBox="0 0 24 24" fill="none" xmlns="http://www.w3.org/2000/svg">
<path fill-rule="evenodd" clip-rule="evenodd" d="M12.5093 1.34921C12.3193 1.12756 12.0419 1 11.75 1C11.4581 1 11.1807 1.12756 10.9908 1.34921L7.99076 4.84921C7.63134 5.26853 7.6799 5.89983 8.09923 6.25926C8.51855 6.61868 9.14985 6.57012 9.50927 6.15079L10.75 4.70326V13C10.75 13.5523 11.1977 14 11.75 14C12.3023 14 12.75 13.5523 12.75 13V4.70326L13.9908 6.15079C14.3502 6.57012 14.9815 6.61868 15.4008 6.25926C15.8201 5.89983 15.8687 5.26853 15.5093 4.84921L12.5093 1.34921ZM6.75 9C5.09315 9 3.75 10.3431 3.75 12V20C3.75 21.6569 5.09315 23 6.75 23H17.25C18.9069 23 20.25 21.6569 20.25 20V12C20.25 10.3431 18.9069 9 17.25 9H15.25C14.6977 9 14.25 9.44771 14.25 10C14.25 10.5523 14.6977 11 15.25 11H17.25C17.8023 11 18.25 11.4477 18.25 12V20C18.25 20.5523 17.8023 21 17.25 21H6.75C6.19772 21 5.75 20.5523 5.75 20V12C5.75 11.4477 6.19772 11 6.75 11H8.25C8.80228 11 9.25 10.5523 9.25 10C9.25 9.44771 8.80228 9 8.25 9H6.75Z" fill="#151719"/>
</svg>
