<svg width="24" height="24" viewBox="0 0 24 24" fill="none" xmlns="http://www.w3.org/2000/svg">
<g clip-path="url(#clip0)">
<path fill-rule="evenodd" clip-rule="evenodd" d="M21.54 7.73C22.5 7.06 23.34 6.22 24 5.25C23.1 5.64 22.15 5.89 21.17 6.01C22.19 5.42 22.96 4.48 23.34 3.36C22.37 3.92 21.31 4.31 20.21 4.52C19.27 3.54 17.97 3 16.62 3C13.9 3 11.7 5.15 11.7 7.8C11.7 8.17 11.74 8.53 11.83 8.89C7.73 8.69 4.1 6.78 1.67 3.88C1.25 4.59 1 5.41 1 6.29C1 7.95 1.87 9.42 3.19 10.28C2.41 10.26 1.65 10.05 0.96 9.68V9.74C0.96 12.06 2.66 14 4.91 14.44C4.18 14.63 3.42 14.66 2.69 14.52C3.32 16.43 5.14 17.81 7.29 17.85C5.6 19.14 3.48 19.9 1.17 19.9C0.77 19.9 0.38 19.88 0 19.83C2.26 21.24 4.88 21.99 7.55 21.99C16.61 21.99 21.56 14.68 21.56 8.34L21.54 7.73Z" fill="white"/>
</g>
<defs>
<clipPath id="clip0">
<rect width="24" height="24" fill="white"/>
</clipPath>
</defs>
</svg>
