<svg width="24" height="24" viewBox="0 0 24 24" fill="none" xmlns="http://www.w3.org/2000/svg">
<path d="M8.9 7.99V16.53C11.45 15.1 13.97 13.69 16.53 12.25L8.9 7.99ZM23.58 18.1C23.29 19.47 22.24 20.49 20.99 20.63C18.01 21 15 21 12 21C9 21 5.99 21 3.01 20.64C1.76 20.49 0.71 19.48 0.42 18.11C0 16.15 0 14.01 0 12C0 9.99 0 7.85 0.42 5.9C0.71 4.53 1.75 3.51 3.01 3.36C5.99 3 9 3 12 3C15 3 18.01 3 20.99 3.36C22.25 3.51 23.29 4.53 23.58 5.9C24 7.85 24 9.99 24 12C24 14.02 24 16.15 23.58 18.1Z" fill="white"/>
</svg>
